<svg xmlns="http://www.w3.org/2000/svg" width="300.224" height="101" viewBox="0 0 300.224 101"><defs><style>.a{fill:#080808;stroke:#707070;}.b{fill:#0a0909;}.c{fill:#0d0d0d;}.d,.e{stroke:none;}.e{fill:#707070;}</style></defs><g transform="translate(-468 -523)"><path class="a" d="M507,546c233.458.3,234,0,234,0v42.828H507Z" transform="translate(0 11.354)"/><g class="b" transform="translate(468 523)"><path class="d" d="M 29.99970436096191 100.4998092651367 C 26.01711845397949 100.4998092651367 22.15390396118164 99.71990203857422 18.51735877990723 98.18173980712891 C 15.00462436676025 96.69595336914062 11.84974479675293 94.56881713867188 9.140371322631836 91.85943603515625 C 6.430984497070312 89.15006256103516 4.303851127624512 85.99517822265625 2.818064451217651 82.48244476318359 C 1.27990460395813 78.84590148925781 0.4999978840351105 74.98268890380859 0.4999978840351105 71.00009918212891 C 0.4999978840351105 65.01019287109375 2.284544467926025 59.2442626953125 5.660717964172363 54.32567596435547 C 7.287997722625732 51.9549560546875 9.248824119567871 49.83655548095703 11.48873138427734 48.02931594848633 C 13.74635791778564 46.20775604248047 16.24870491027832 44.7340202331543 18.92627716064453 43.64902114868164 L 19.59319877624512 43.37878036499023 L 19.10730361938477 42.84800720214844 C 17.02022361755371 40.56814193725586 15.38949108123779 37.98134231567383 14.26041126251221 35.15947341918945 C 13.09209156036377 32.23954010009766 12.49970436096191 29.15788841247559 12.49970436096191 26.00010108947754 C 12.49970436096191 22.55976676940918 13.19939804077148 19.22242164611816 14.57935810089111 16.08075332641602 C 15.91289138793945 13.04475402832031 17.82239723205566 10.31771373748779 20.25482368469238 7.975407600402832 C 22.68855857849121 5.631834030151367 25.52282524108887 3.791754245758057 28.67890548706055 2.506287574768066 C 31.94739723205566 1.175020813941956 35.4198112487793 0.5000075101852417 38.99970626831055 0.5000075101852417 C 42.57979965209961 0.5000075101852417 46.05234527587891 1.175020813941956 49.32089233398438 2.506287574768066 C 52.47698593139648 3.791754245758057 55.31123733520508 5.631834030151367 57.74491882324219 7.975407600402832 C 60.17726516723633 10.31768703460693 62.08669281005859 13.04472732543945 63.42018508911133 16.08073997497559 C 64.800048828125 19.22238159179688 65.49970245361328 22.55974006652832 65.49970245361328 26.00010108947754 C 65.49970245361328 30.87075424194336 64.06818389892578 35.60539245605469 61.35988998413086 39.69215393066406 C 58.72080993652344 43.67448806762695 54.99845123291016 46.87095260620117 50.59523773193359 48.93598175048828 L 49.9371452331543 49.24462127685547 L 50.46071624755859 49.74882125854492 C 53.28897094726562 52.47249984741211 55.51278305053711 55.67143249511719 57.07035827636719 59.25678253173828 C 58.68275833129883 62.96828842163086 59.50030517578125 66.9193115234375 59.50030517578125 71.00009918212891 C 59.50030517578125 74.98270416259766 58.72038269042969 78.84591674804688 57.18222427368164 82.48244476318359 C 55.69642639160156 85.99517822265625 53.56926345825195 89.15006256103516 50.85982513427734 91.85943603515625 C 48.15038299560547 94.56881713867188 44.99542617797852 96.69595336914062 41.48257064819336 98.18173980712891 C 37.84589004516602 99.71990203857422 33.98250579833984 100.4998092651367 29.99970436096191 100.4998092651367 Z"/><path class="e" d="M 29.99970436096191 99.99980926513672 C 33.91522598266602 99.99980926513672 37.71309280395508 99.23317718505859 41.28779602050781 97.72123718261719 C 44.74105072021484 96.26065826416016 47.84259796142578 94.16951751708984 50.50627899169922 91.50587463378906 C 53.16995620727539 88.84226226806641 55.26113128662109 85.74080657958984 56.72173309326172 82.28765869140625 C 58.23367691040039 78.71310424804688 59.00030517578125 74.9154052734375 59.00030517578125 71.00009918212891 C 59.00030517578125 66.98825836181641 58.19667816162109 63.1042594909668 56.61177062988281 59.45600891113281 C 55.08059692382812 55.93146133422852 52.8943977355957 52.78667449951172 50.11387634277344 50.10896682739258 L 49.06674575805664 49.10056686401367 L 50.3829460144043 48.48329925537109 C 54.70306396484375 46.45723342895508 58.35471725463867 43.32179260253906 60.9431037902832 39.41595458984375 C 63.59695816040039 35.41134262084961 64.99970245361328 30.77220726013184 64.99970245361328 26.00010108947754 C 64.99970245361328 22.62939453125 64.31425476074219 19.35968780517578 62.96238327026367 16.28182029724121 C 61.65529251098633 13.30584716796875 59.78318405151367 10.63234043121338 57.39809036254883 8.335554122924805 C 55.01034545898438 6.036221027374268 52.22933197021484 4.230767250061035 49.13228988647461 2.969340801239014 C 45.92391967773438 1.662594199180603 42.51482391357422 1.000007510185242 38.99970626831055 1.000007510185242 C 35.48478317260742 1.000007510185242 32.07582473754883 1.662594199180603 28.86750411987305 2.969340801239014 C 25.77047729492188 4.230767250061035 22.98943710327148 6.036234378814697 20.60163879394531 8.335567474365234 C 18.21646499633789 10.63238048553467 16.34430503845215 13.30588722229004 15.03713130950928 16.28183364868164 C 13.6851978302002 19.35972785949707 12.99970436096191 22.62942123413086 12.99970436096191 26.00010108947754 C 12.99970436096191 29.09396743774414 13.58005142211914 32.11314010620117 14.72463798522949 34.97372817993164 C 15.83125114440918 37.73943328857422 17.42987823486328 40.27514266967773 19.47610473632812 42.51039505004883 L 20.44789123535156 43.57192611694336 L 19.11406517028809 44.11241912841797 C 16.48199844360352 45.17898178100586 14.02210426330566 46.62772750854492 11.80269145965576 48.4184455871582 C 9.600544929504395 50.19523239135742 7.672784328460693 52.27791595458984 6.072957992553711 54.60863494873047 C 2.754197835922241 59.44356918334961 0.9999979138374329 65.11164855957031 0.9999979138374329 71.00009918212891 C 0.9999979138374329 74.9154052734375 1.766624569892883 78.71308898925781 3.278557777404785 82.28765869140625 C 4.739144325256348 85.74080657958984 6.830291271209717 88.84226226806641 9.493917465209961 91.50588989257812 C 12.15754413604736 94.16951751708984 15.25899791717529 96.26065826416016 18.71214485168457 97.72124481201172 C 22.28671836853027 99.23317718505859 26.08439826965332 99.99980926513672 29.99970436096191 99.99980926513672 M 29.99970436096191 100.9998092651367 C 13.43159770965576 100.9998092651367 -2.106526608258719e-06 87.56820678710938 -2.106526608258719e-06 71.00009918212891 C -2.106526608258719e-06 58.41356658935547 7.749811172485352 47.63842010498047 18.73850440979004 43.18561935424805 C 14.54407787322998 38.60374069213867 11.99970436096191 32.58826065063477 11.99970436096191 26.00010108947754 C 11.99970436096191 11.6406078338623 24.08850479125977 7.484537945856573e-06 38.99970626831055 7.484537945856573e-06 C 53.91179656982422 7.484537945856573e-06 65.99970245361328 11.6406078338623 65.99970245361328 26.00010108947754 C 65.99970245361328 36.28243255615234 59.80237197875977 45.17026138305664 50.80754470825195 49.38867568969727 C 56.47429275512695 54.84587478637695 60.00030517578125 62.51132583618164 60.00030517578125 71.00009918212891 C 60.00030517578125 87.56820678710938 46.56870269775391 100.9998092651367 29.99970436096191 100.9998092651367 Z"/></g><g class="c" transform="translate(702 525)"><path class="d" d="M 33.11190032958984 98.5 C 28.70325088500977 98.5 24.42708778381348 97.71794128417969 20.40221214294434 96.17555236816406 C 16.51728820800781 94.68679046630859 13.02891254425049 92.55609130859375 10.03400039672852 89.8426513671875 C 7.042625427246094 87.13242340087891 4.694612979888916 83.97763824462891 3.055175304412842 80.46591186523438 C 1.359687805175781 76.83412170410156 0.5000003576278687 72.97653961181641 0.5000003576278687 69.00029754638672 C 0.5000003576278687 65.57900238037109 1.141562819480896 62.22679901123047 2.406850337982178 59.03680038452148 C 3.630675315856934 55.95137405395508 5.408475399017334 53.08602523803711 7.690862655639648 50.52036285400391 L 7.980362892150879 50.19493865966797 L 7.697700500488281 49.86356353759766 C 3.056187868118286 44.42195129394531 0.5000003576278687 37.36748886108398 0.5000003576278687 29.99970054626465 C 0.5000003576278687 26.01318740844727 1.231462836265564 22.14642524719238 2.674050331115723 18.50681304931641 C 4.066750526428223 14.99308776855469 6.060137748718262 11.83783721923828 8.598837852478027 9.128700256347656 C 11.13537502288818 6.421862602233887 14.08828735351562 4.297049999237061 17.37555122375488 2.813287496566772 C 20.77630043029785 1.278300046920776 24.38870048522949 0.5 28.11240005493164 0.5 C 31.83588790893555 0.5 35.44810104370117 1.278300046920776 38.84872436523438 2.813287496566772 C 42.1358642578125 4.297049999237061 45.08869934082031 6.421862602233887 47.62517547607422 9.128700256347656 C 50.16382598876953 11.83784961700439 52.15717697143555 14.9931001663208 53.54986190795898 18.50681304931641 C 54.99245071411133 22.14643669128418 55.72389984130859 26.0132007598877 55.72389984130859 29.99970054626465 C 55.72389984130859 35.08938598632812 54.49100112915039 40.10682678222656 52.15850067138672 44.50958633422852 L 51.94602584838867 44.91064834594727 L 52.32471466064453 45.16083908081055 C 56.38972473144531 47.84650039672852 59.76129913330078 51.39702606201172 62.07492446899414 55.42855072021484 C 63.25352478027344 57.48226165771484 64.16161346435547 59.66081237792969 64.77398681640625 61.90370178222656 C 65.40423583984375 64.21207427978516 65.72380065917969 66.59971618652344 65.72380065917969 69.00029754638672 C 65.72380065917969 72.97653961181641 64.86411285400391 76.83412170410156 63.16862487792969 80.46591186523438 C 61.5291862487793 83.97763824462891 59.18117523193359 87.13242340087891 56.18980026245117 89.8426513671875 C 53.19488906860352 92.55609130859375 49.70651245117188 94.68679046630859 45.82158660888672 96.17555236816406 C 41.79671096801758 97.71794128417969 37.52054977416992 98.5 33.11190032958984 98.5 Z"/><path class="e" d="M 33.11190032958984 98 C 37.45916748046875 98 41.67512512207031 97.22908020019531 45.64267349243164 95.70865631103516 C 49.4695930480957 94.24211883544922 52.90520858764648 92.14383697509766 55.85409927368164 89.47212219238281 C 58.7958984375 86.80681610107422 61.10443496704102 83.70552062988281 62.71557998657227 80.25440979003906 C 64.37991333007812 76.68934631347656 65.22380828857422 72.90292358398438 65.22380828857422 69.00030517578125 C 65.22380828857422 66.64420318603516 64.91017913818359 64.30086517333984 64.29164886474609 62.03538513183594 C 63.69046020507812 59.83345413208008 62.79874038696289 57.69432067871094 61.64127349853516 55.67742538452148 C 59.36627197265625 51.71321487426758 56.04933929443359 48.22089385986328 52.049072265625 45.5780143737793 L 51.29171371459961 45.07764053344727 L 51.71665954589844 44.27552032470703 C 54.01111221313477 39.94459915161133 55.22389984130859 35.00810623168945 55.22389984130859 29.99970626831055 C 55.22389984130859 26.07655906677246 54.50428771972656 22.27177238464355 53.08504867553711 18.69105339050293 C 51.71559524536133 15.23594665527344 49.75587463378906 12.13373374938965 47.26032638549805 9.470586776733398 C 44.76911544799805 6.812053203582764 41.86983489990234 4.725546836853027 38.64302062988281 3.269013404846191 C 35.30748748779297 1.763399958610535 31.76447296142578 1 28.11239433288574 1 C 24.4601001739502 1 20.91691398620605 1.763413310050964 17.58124732971191 3.269013404846191 C 14.35432720184326 4.725546836853027 11.45495319366455 6.812053203582764 8.96367359161377 9.470600128173828 C 6.468087196350098 12.13373374938965 4.508340358734131 15.23593330383301 3.13887357711792 18.69105339050293 C 1.71963369846344 22.27177238464355 1.000007033348083 26.07654571533203 1.000007033348083 29.99970626831055 C 1.000007033348083 37.24866485595703 3.513726949691772 44.18788146972656 8.078113555908203 49.53908157348633 L 8.643420219421387 50.20183944702148 L 8.064434051513672 50.85269165039062 C 5.820967197418213 53.37461471557617 4.073860168457031 56.19015884399414 2.871633768081665 59.22116088867188 C 1.629713654518127 62.35222625732422 1.000007033348083 65.64240264892578 1.000007033348083 69.00030517578125 C 1.000007033348083 72.90292358398438 1.843900322914124 76.68934631347656 3.508233547210693 80.25440979003906 C 5.119380474090576 83.70552062988281 7.427913665771484 86.80681610107422 10.36971378326416 89.47212219238281 C 13.31859397888184 92.14383697509766 16.75422096252441 94.24211883544922 20.58114051818848 95.70865631103516 C 24.54868698120117 97.22908020019531 28.76464653015137 98 33.11190032958984 98 M 33.11190032958984 99 C 14.82480716705322 99 6.996256615821039e-06 85.56841278076172 6.996256615821039e-06 69.00030517578125 C 6.996256615821039e-06 61.87675857543945 2.73979377746582 55.33366775512695 7.317286968231201 50.18804168701172 C 2.771313667297363 44.85842514038086 6.996256615821039e-06 37.77450561523438 6.996256615821039e-06 29.99970626831055 C 6.996256615821039e-06 13.43159961700439 12.58650016784668 0 28.11239433288574 0 C 43.63740539550781 0 56.22389984130859 13.43159961700439 56.22389984130859 29.99970626831055 C 56.22389984130859 35.3585319519043 54.90710067749023 40.38946533203125 52.60031509399414 44.74366760253906 C 60.85773849487305 50.19914627075195 66.22380828857422 59.03200149536133 66.22380828857422 69.00030517578125 C 66.22380828857422 85.56841278076172 51.39900588989258 99 33.11190032958984 99 Z"/></g></g></svg>