<svg xmlns="http://www.w3.org/2000/svg" width="447.96" height="514.534" viewBox="0 0 447.96 514.534"><g transform="translate(59.054 -101.219)"><g transform="translate(-55.606 104.703)"><path d="M62.208,0s15.2,78.338,7.015,94.708S-4.438,130.954.239,109.908,43.5,85.354,39.993,61.969s4.677-50.277,4.677-50.277Z" transform="translate(193.63 366.348)" fill="#2b1100" stroke="#000" stroke-width="5.644"/><path d="M62.208,0s15.2,78.338,7.015,94.708S-4.438,130.954.239,109.908,43.5,85.354,39.993,61.969s4.677-50.277,4.677-50.277Z" transform="translate(247.809 369.205)" fill="#2b1100" stroke="#000" stroke-width="5.644"/><path d="M318.339.008c33.617.23,79.821,5.531,67.681,27.094-16.89,30-67.549-5.7-68.6,17.156s-1.062,67.156-1.062,67.156c1.255,22.554,1.839,78.071-18.335,120.5,2.623,19.381,12.091,93.554,5.68,110.906-7.389,20-66.5,44.308-62.278,18.594s39.051-30.022,35.884-58.594c-1.605-14.483-.489-30.027.993-41.875-17.469,17.9-42.626,28.434-78.765,24.094a266.84,266.84,0,0,1-26.486-4.531c2.728,27.477,4.7,58.944.808,69.469-7.389,20-66.5,44.277-62.278,18.563s39.051-29.991,35.884-58.562c-1.37-12.362-.759-25.51.369-36.469C46.022,239.685,0,154.1,0,154.1L152.1,89.6l135.731,9.563C284.264,76.94,273.7,3.837,288.92,1.414,293.967.611,305.184-.082,318.339.008Z" transform="translate(52.992 127.924)" fill="#803300" stroke="#000" stroke-width="6.896"/><path d="M0,159.286c0,87.971,69.462,159.286,155.148,159.286S310.3,247.257,310.3,159.286,240.834,0,155.148,0,0,71.315,0,159.286Z" transform="translate(0 52.733)" fill="#a40" stroke="#000" stroke-width="6.896"/><path d="M0,68.209c0,37.671,22.672,68.209,50.639,68.209s50.639-30.538,50.639-68.209S78.606,0,50.639,0,0,30.538,0,68.209Z" transform="translate(45.46 102.689)" fill="#fff" stroke="#000" stroke-width="6.896"/><path d="M0,67.96c0,37.533,22.7,67.96,50.7,67.96s50.7-30.427,50.7-67.96S78.7,0,50.7,0,0,30.427,0,67.96Z" transform="translate(162.989 94.446)" fill="#fff" stroke="#000" stroke-width="6.896"/><path d="M0,12.143c0,6.706,4.477,12.143,10,12.143s10-5.437,10-12.143S15.523,0,10,0,0,5.437,0,12.143Z" transform="translate(190.885 149.65)" stroke="#000" stroke-width="6.896"/><path d="M0,16.429C0,25.5,4.477,32.857,10,32.857S20,25.5,20,16.429,15.523,0,10,0,0,7.355,0,16.429Z" transform="translate(78.167 154.793)" stroke="#000" stroke-width="6.896"/><path d="M0,53.448S18.571-6.552,47.143.591,85.714,14.876,85.714,14.876,30,64.876,27.143,79.162,0,54.876,0,53.448Z" transform="translate(215.057 0)" fill="#2b1100" stroke="#000" stroke-width="6.896"/><path d="M51.429,63.2S41.429-5.376,24.286.338,0,4.624,0,4.624s22.857,60,32.857,64.286S51.429,64.624,51.429,63.2Z" transform="translate(44.772 0.395)" fill="#2b1100" stroke="#000" stroke-width="6.896"/><path d="M0,22.857A22.857,22.857,0,1,0,22.857,0,22.857,22.857,0,0,0,0,22.857Z" transform="translate(178.533 151.435)" fill="#fff" opacity="0.273"/><path d="M0,22.857A22.857,22.857,0,1,0,22.857,0,22.857,22.857,0,0,0,0,22.857Z" transform="translate(71.483 148.66)" fill="#fff" opacity="0.273"/><path d="M0,67.328c0,37.184,28.381,67.328,63.39,67.328s63.39-30.144,63.39-67.328S98.4,0,63.39,0,0,30.144,0,67.328Z" transform="translate(81.629 211.674)" fill="#c87137" stroke="#000" stroke-width="2.922"/><path d="M0,11.288c0,6.234,11.052,11.288,24.686,11.288s24.686-5.054,24.686-11.288S38.319,0,24.686,0,0,5.054,0,11.288Z" transform="translate(109.279 205.006)" fill="#f55" stroke="#000" stroke-width="8.953"/><path d="M12.086,60.739S30.519,10.592,0,0" transform="translate(135.278 304.799) rotate(-164)" fill="none" stroke="#000" stroke-width="0.878"/><path d="M1.034,0S2.611,50.147,0,60.739" transform="translate(135.05 240.762)" fill="none" stroke="#000" stroke-width="0.878"/></g><g transform="translate(-469.548 -233.228) rotate(3)"><path d="M507,546c174.827.3,175.233,0,175.233,0v42.828H507Z" transform="translate(0 25.574)" fill="#080808" stroke="#707070" stroke-width="1"/><g transform="translate(468 523)"><path d="M30,124.578A24.494,24.494,0,0,1,18.517,121.7a29.958,29.958,0,0,1-9.377-7.845,37.963,37.963,0,0,1-6.322-11.635A44.052,44.052,0,0,1,.5,87.975,42.792,42.792,0,0,1,5.661,67.286a35,35,0,0,1,5.828-7.812,28.874,28.874,0,0,1,7.438-5.435l.667-.335-.486-.659A33.152,33.152,0,0,1,14.26,43.5a37.507,37.507,0,0,1,.319-23.673A32.463,32.463,0,0,1,20.255,9.775a26.7,26.7,0,0,1,8.424-6.786,22.64,22.64,0,0,1,20.642,0,26.7,26.7,0,0,1,8.424,6.786A32.463,32.463,0,0,1,63.42,19.832,36.778,36.778,0,0,1,65.5,32.14a36.147,36.147,0,0,1-4.14,16.989A28.829,28.829,0,0,1,50.6,60.6l-.658.383.524.626a37.664,37.664,0,0,1,6.61,11.8,44.921,44.921,0,0,1,.112,28.818,37.962,37.962,0,0,1-6.322,11.635,29.958,29.958,0,0,1-9.377,7.845A24.5,24.5,0,0,1,30,124.578Z" transform="translate(0 0)" fill="#0a0909"/><path d="M30,123.84a24.117,24.117,0,0,0,11.288-2.822,29.438,29.438,0,0,0,9.218-7.7A37.226,37.226,0,0,0,56.722,101.9a44,44,0,0,0-.11-28.275,36.937,36.937,0,0,0-6.5-11.575l-1.047-1.249,1.316-.764a28.248,28.248,0,0,0,10.56-11.229A35.3,35.3,0,0,0,65,32.2a35.9,35.9,0,0,0-2.037-12.035A31.748,31.748,0,0,0,57.4,10.323a26.19,26.19,0,0,0-8.266-6.646,22.268,22.268,0,0,0-20.265,0A26.191,26.191,0,0,0,20.6,10.323a31.749,31.749,0,0,0-5.565,9.841,36.61,36.61,0,0,0-.312,23.148,32.412,32.412,0,0,0,4.751,9.333l.972,1.315-1.334.669A28.382,28.382,0,0,0,11.8,59.961a34.345,34.345,0,0,0-5.73,7.666A41.921,41.921,0,0,0,1,87.926,43.147,43.147,0,0,0,3.279,101.9a37.227,37.227,0,0,0,6.215,11.416,29.438,29.438,0,0,0,9.218,7.7A24.115,24.115,0,0,0,30,123.84m0,1.238c-16.568,0-30-16.634-30-37.152C0,72.339,7.75,59,18.739,53.481A35.826,35.826,0,0,1,12,32.2C12,14.416,24.089,0,39,0S66,14.416,66,32.2c0,12.734-6.2,23.74-15.192,28.964C56.474,67.921,60,77.414,60,87.926,60,108.444,46.569,125.078,30,125.078Z" transform="translate(0 0)" fill="#707070"/></g><g transform="translate(643.233 525)"><path d="M33.112,122.578a29.286,29.286,0,0,1-12.71-2.9,32.6,32.6,0,0,1-10.368-7.889,37.206,37.206,0,0,1-6.979-11.681,41.265,41.265,0,0,1-.648-26.694A38.107,38.107,0,0,1,7.691,62.81l.29-.405L7.7,61.992A44.1,44.1,0,0,1,.5,37.248,47.15,47.15,0,0,1,2.674,22.931,39.023,39.023,0,0,1,8.6,11.249a28.6,28.6,0,0,1,8.777-7.867,21.442,21.442,0,0,1,21.473,0,28.6,28.6,0,0,1,8.776,7.867A39.024,39.024,0,0,1,53.55,22.931a47.15,47.15,0,0,1,2.174,14.317,46.552,46.552,0,0,1-3.565,18.075l-.212.5.379.312a36.234,36.234,0,0,1,9.75,12.79,39.535,39.535,0,0,1,2.7,8.066,41.362,41.362,0,0,1,.95,8.84,40.55,40.55,0,0,1-2.555,14.283,37.206,37.206,0,0,1-6.979,11.681,32.6,32.6,0,0,1-10.368,7.889A29.286,29.286,0,0,1,33.112,122.578Z" transform="translate(0 0)" fill="#0d0d0d"/><path d="M33.112,121.835a28.921,28.921,0,0,0,12.531-2.849,32.1,32.1,0,0,0,10.211-7.753,36.489,36.489,0,0,0,6.861-11.46,39.653,39.653,0,0,0,2.508-13.991,40.436,40.436,0,0,0-.932-8.659,38.689,38.689,0,0,0-2.65-7.9,35.579,35.579,0,0,0-9.592-12.556l-.757-.622.425-1A45.631,45.631,0,0,0,55.224,37.3a46.217,46.217,0,0,0-2.139-14.059A38.263,38.263,0,0,0,47.26,11.774a28.06,28.06,0,0,0-8.617-7.71,21.067,21.067,0,0,0-21.062,0,28.06,28.06,0,0,0-8.618,7.71A38.262,38.262,0,0,0,3.139,23.237,46.217,46.217,0,0,0,1,37.3,43.233,43.233,0,0,0,8.078,61.588l.565.824-.579.809a37.341,37.341,0,0,0-5.193,10.4,40.344,40.344,0,0,0,.637,26.149,36.489,36.489,0,0,0,6.861,11.46,32.1,32.1,0,0,0,10.211,7.753,28.921,28.921,0,0,0,12.531,2.849m0,1.243C14.825,123.078,0,106.38,0,85.782A40.151,40.151,0,0,1,7.317,62.394,44.57,44.57,0,0,1,0,37.3C0,16.7,12.587,0,28.112,0S56.224,16.7,56.224,37.3A46.877,46.877,0,0,1,52.6,55.626c8.257,6.782,13.623,17.763,13.623,30.156C66.224,106.38,51.4,123.078,33.112,123.078Z" transform="translate(0)" fill="#707070"/></g></g></g></svg>