<svg xmlns="http://www.w3.org/2000/svg" width="61.8319" height="50.9835" viewBox="0 0 618.319 509.835">
<defs><style>.a,.f{fill:#2b1100;}.a,.b,.c,.d,.e,.f,.i,.j,.k{stroke:#000;}.a{stroke-width:5.644px;}.b{fill:#803300;}.b,.c,.d,.e,.f{stroke-width:6.896px;}.c{fill:#a40;}.d,.h{fill:#fff;}.g{fill:#c7f8f5;}.h{opacity:0.273;}.i{fill:#c87137;stroke-width:2.922px;}.j{fill:#f55;stroke-width:8.953px;}.k{fill:none;stroke-width:0.878px;}</style></defs>
<g transform="translate(219.157 -4.252)">
<path class="a" d="M120.138,369.384s-15.2,78.338-7.015,94.708,73.661,36.246,68.985,15.2-43.261-24.554-39.754-47.938-4.677-50.277-4.677-50.277Z"/>
<path class="a" d="M-67,372.242s-15.2,78.338-7.015,94.708S-.358,503.2-5.035,482.149-48.3,457.6-44.789,434.211s-4.677-50.277-4.677-50.277Z"/>
<path class="b" d="M-121.25,130.969c-45.494.23-108.022,5.531-91.594,27.094,22.857,30,91.415-5.7,92.844,17.156s1.438,67.156,1.438,67.156c-1.7,22.554-2.489,78.071,24.813,120.5-3.549,19.381-16.364,93.554-7.687,110.906,10,20,90,44.308,84.281,18.594S-70,462.353-65.719,433.781c2.173-14.483.662-30.027-1.344-41.875C-43.421,409.808-9.376,420.34,39.531,416q18.616-1.652,35.844-4.531c-3.692,27.477-6.356,58.944-1.094,69.469,10,20,90,44.277,84.281,18.563S105.714,469.509,110,440.938c1.854-12.362,1.027-25.51-.5-36.469,137.78-33.823,200.063-119.406,200.063-119.406l-205.844-64.5-183.687,9.563c4.832-22.224,19.127-95.327-1.469-97.75C-88.268,131.571-103.448,130.879-121.25,130.969Z"/>
<path class="c" d="M352.857,227.362c0,87.971-66.837,159.286-149.286,159.286S54.286,315.333,54.286,227.362,121.123,68.076,203.571,68.076s149.286,71.315,149.286,159.286Z"/>
<path class="d" d="M188.571,186.648c0,43.394-28.462,78.571-63.571,78.571s-63.571-35.178-63.571-78.571S89.89,108.076,125,108.076,188.571,143.254,188.571,186.648Z"/>
<path class="d" d="M395.714,173.791c0,49.706-30.061,90-67.143,90s-67.143-40.294-67.143-90,30.061-90,67.143-90,67.143,40.294,67.143,90Z"/>
<path class="e" d="M131.429,171.648c0,6.706-4.477,12.143-10,12.143s-10-5.437-10-12.143,4.477-12.143,10-12.143,10,5.437,10,12.143Z"/>
<path class="e" d="M348.571,151.648c0,9.073-4.477,16.429-10,16.429s-10-7.355-10-16.429,4.477-16.429,10-16.429S348.571,142.575,348.571,151.648Z"/>
<path class="f" d="M88.571,113.791S70,53.791,41.429,60.934,2.857,75.219,2.857,75.219s55.714,50,58.571,64.286,27.143-24.286,27.143-25.714Z"/>
<path class="f" d="M242.857,70.934S252.857,2.362,270,8.076s24.286,4.286,24.286,4.286-22.857,60-32.857,64.286-18.571-4.286-18.571-5.714Z"/>
<path class="g" d="M126.413,113.777c-35.11,0-63.562,32-63.562,71.449s28.453,71.421,63.562,71.421a57.218,57.218,0,0,0,7.031-.455c-31.814-3.918-56.594-34.177-56.594-70.967s24.78-67.077,56.594-70.995a57.214,57.214,0,0,0-7.031-.455Z"/>
<path class="g" d="M328.413,87.205c-35.11,0-63.562,38.4-63.562,85.738s28.453,85.7,63.563,85.7a47.831,47.831,0,0,0,7.031-.545c-31.814-4.7-56.594-41.012-56.594-85.158s24.78-80.491,56.594-85.193a47.83,47.83,0,0,0-7.031-.545Z"/>
<path class="h" d="M-20.9-5.98A22.857,22.857,0,0,1-43.755,16.877,22.857,22.857,0,0,1-66.612-5.98,22.857,22.857,0,0,1-43.755-28.837,22.857,22.857,0,0,1-20.9-5.98Z" transform="translate(183.351 157.189)"/>
<path class="h" d="M-20.9-5.98A22.857,22.857,0,0,1-43.755,16.877,22.857,22.857,0,0,1-66.612-5.98,22.857,22.857,0,0,1-43.755-28.837,22.857,22.857,0,0,1-20.9-5.98Z" transform="translate(400.78 143.189)"/>
<path class="i" d="M149.83,96.1c0,37.184-28.381,67.328-63.39,67.328S23.051,133.288,23.051,96.1s28.381-67.328,63.39-67.328S149.83,58.919,149.83,96.1Z" transform="translate(154.507 194.898)"/>
<path class="j" d="M235.886,474.465c0,6.234-11.052,11.288-24.686,11.288s-24.686-5.054-24.686-11.288,11.052-11.288,24.686-11.288,24.686,5.054,24.686,11.288Z" transform="translate(33.044 -224.274)"/>
<path class="k" d="M243.613,259.447s18.432,50.147-12.086,60.739"/><path class="k" d="M253.044,259.447s-18.432,50.147,12.086,60.739"/>
</g>
</svg>