<?xml version="1.0" standalone="no"?>
<!DOCTYPE svg PUBLIC "-//W3C//DTD SVG 20010904//EN"
 "http://www.w3.org/TR/2001/REC-SVG-20010904/DTD/svg10.dtd">
<svg version="1.0" xmlns="http://www.w3.org/2000/svg"
 width="1280.000000pt" height="1280.000000pt" viewBox="0 0 1280.000000 1280.000000"
 preserveAspectRatio="xMidYMid meet">
<g transform="translate(0.000000,1280.000000) scale(0.100000,-0.100000)"
fill="#ff0000" stroke="none">
<path d="M9105 10970 c-320 -28 -654 -113 -938 -240 -48 -22 -85 -35 -82 -31
2 5 34 21 70 36 36 16 65 32 65 37 0 5 6 6 13 3 6 -3 -8 11 -33 32 -25 21 -75
67 -112 102 -42 39 -68 58 -68 48 0 -8 -20 -46 -45 -83 -48 -71 -52 -79 -32
-68 8 5 8 2 -2 -9 -16 -20 -26 -23 -15 -4 5 8 2 8 -9 -2 -20 -16 -23 -36 -4
-25 8 5 8 2 -2 -9 -16 -20 -25 -22 -16 -4 17 33 -48 -53 -67 -90 -13 -24 -27
-43 -32 -43 -19 0 -273 83 -308 101 l-37 19 -6 -54 c-10 -77 -14 -81 -69 -67
-25 6 -71 22 -101 36 -30 13 -54 21 -54 17 1 -4 0 -18 -1 -32 -2 -19 -5 -15
-10 15 l-7 40 -2 -34 c-2 -48 -62 -271 -73 -271 -5 0 -26 9 -47 20 l-39 19 -7
-47 c-3 -26 -8 -58 -11 -72 -4 -22 -3 -23 5 -5 8 17 10 18 10 3 1 -22 61 -26
61 -4 0 7 3 27 6 44 5 25 2 31 -17 38 -13 4 -27 7 -31 6 -5 -1 -8 2 -8 8 0 13
6 13 41 -6 29 -14 30 -17 23 -62 -3 -26 -8 -48 -9 -50 -4 -4 -476 -25 -534
-23 -44 2 -53 -1 -48 -13 26 -68 44 -196 27 -196 -7 0 -55 40 -106 90 -322
307 -712 559 -1077 694 -118 44 -315 101 -377 110 -25 3 18 -12 95 -33 287
-81 528 -188 732 -323 68 -45 121 -83 119 -86 -2 -2 -17 4 -33 14 -41 26 -17
4 57 -51 104 -78 257 -212 370 -324 l105 -105 -30 -8 c-36 -11 -122 -3 -141
13 -7 6 -19 38 -25 70 -11 56 -13 59 -29 44 -10 -9 -52 -31 -93 -49 l-75 -32
71 -2 c40 -1 80 -5 91 -8 10 -4 22 0 27 7 7 11 9 10 9 -5 0 -15 -5 -17 -32
-13 -18 4 -71 7 -118 8 -93 2 -149 -15 -181 -54 l-17 -22 3 30 c2 17 8 48 14
69 13 54 -2 132 -45 224 -22 49 -37 71 -45 66 -7 -4 -9 -3 -5 4 3 6 -11 48
-33 94 -22 46 -42 91 -45 101 -6 17 -9 16 -44 -11 -54 -43 -142 -95 -149 -89
-3 3 -8 35 -10 70 l-6 64 -47 -18 c-26 -10 -96 -28 -155 -40 -82 -18 -103 -25
-85 -30 18 -5 19 -7 7 -8 -14 -1 -17 -6 -11 -23 14 -45 14 -53 3 -28 -7 14
-20 42 -31 63 -10 21 -18 46 -18 56 0 11 -3 26 -6 35 -5 14 -8 14 -30 0 -13
-9 -22 -20 -19 -24 3 -4 -1 -7 -8 -6 -6 0 -51 -14 -99 -33 -72 -28 -90 -31
-103 -21 -20 17 -95 167 -95 191 0 11 -2 19 -5 19 -2 0 -29 -17 -59 -39 -31
-21 -69 -44 -86 -51 -27 -11 -32 -10 -65 19 -20 17 -76 58 -126 92 -50 33
-108 77 -130 96 l-39 35 -10 -27 c-5 -14 -10 -29 -10 -33 0 -4 30 -23 68 -42
63 -32 167 -123 189 -163 8 -16 13 -17 36 -6 15 7 26 17 24 23 -2 6 -55 46
-118 89 -63 43 -125 90 -139 105 l-25 27 30 -26 c17 -15 66 -50 110 -79 98
-65 155 -109 155 -120 0 -4 -15 -17 -33 -28 l-34 -19 -18 34 c-37 69 -188 176
-277 197 -14 3 -57 26 -94 51 -36 25 -68 45 -69 45 -1 0 -5 -15 -8 -34 -3 -19
-28 -83 -56 -143 -68 -147 -93 -217 -101 -288 l-7 -60 -1 52 c-2 52 -2 53 -54
83 -29 16 -49 30 -44 30 5 0 30 -12 55 -26 35 -19 40 -20 21 -5 -14 11 -84 46
-156 76 -72 31 -147 67 -167 81 -35 24 -37 24 -37 5 0 -21 -23 -94 -79 -254
-17 -49 -31 -96 -30 -105 0 -9 6 1 13 23 l13 40 -1 -46 c-1 -45 -1 -46 -28
-38 -15 4 -32 10 -37 13 -12 8 -26 -58 -16 -73 14 -23 27 -10 23 24 -2 19 0
35 4 35 4 0 8 -21 8 -46 l0 -46 -24 15 c-25 17 -46 7 -46 -22 0 -9 -5 -23 -11
-31 -8 -12 -9 -10 -4 9 5 15 2 27 -6 32 -11 7 -9 9 6 9 l20 1 -20 8 c-11 5
-81 19 -155 31 -74 12 -150 29 -169 36 -19 8 -36 12 -39 9 -3 -3 -1 -5 4 -5 6
0 7 -23 4 -52 l-5 -53 -71 2 c-38 1 -88 8 -110 15 l-40 14 4 -91 4 -91 -96
-61 c-94 -59 -96 -60 -146 -52 -28 4 -59 10 -68 13 -15 5 -17 -1 -14 -49 l4
-54 43 32 c34 26 39 33 26 39 -10 4 -7 6 12 5 15 -1 27 -2 27 -3 0 0 -26 -21
-58 -46 l-59 -45 -2 56 c-3 79 -11 77 -11 -3 l0 -67 -126 -122 c-206 -198
-342 -381 -460 -617 -29 -58 -53 -101 -54 -96 0 15 91 218 133 296 156 288
331 509 627 794 51 49 85 86 75 82 -31 -11 -207 -117 -282 -169 -85 -58 -240
-216 -344 -349 -159 -204 -301 -447 -393 -674 -33 -79 -42 -93 -72 -108 -19
-9 -32 -21 -29 -26 4 -6 -1 -7 -11 -3 -10 3 -15 2 -12 -3 4 -5 -4 -10 -15 -10
-12 -1 -33 -5 -46 -9 l-24 -8 6 116 c11 192 54 441 102 592 4 13 1 12 -8 -5
-23 -38 -84 -221 -113 -333 -85 -337 -97 -594 -44 -1004 6 -45 12 -99 15 -120
8 -67 33 -193 74 -368 38 -160 96 -503 88 -511 -2 -2 -27 78 -55 178 -83 293
-130 561 -156 893 l-12 160 -12 -78 c-7 -43 -12 -91 -12 -107 0 -16 -6 -35
-14 -43 -15 -15 -17 -7 60 -407 49 -258 118 -493 206 -700 24 -58 53 -142 63
-188 l18 -82 -27 -29 c-16 -16 -37 -31 -47 -34 -23 -6 -44 24 -122 171 -27 50
-50 92 -53 92 -6 0 71 -212 94 -255 26 -49 82 -133 82 -122 0 4 -11 24 -24 45
-25 40 -85 160 -64 128 50 -74 173 -245 189 -261 11 -11 -9 23 -45 77 -66 97
-79 121 -51 98 8 -7 21 -10 28 -7 7 3 21 -1 32 -9 10 -8 14 -14 9 -14 -6 0
-14 3 -20 8 -5 4 10 -11 32 -33 36 -35 48 -59 94 -190 115 -330 259 -614 477
-937 51 -77 92 -142 90 -145 -6 -5 -215 228 -368 412 -149 179 -245 301 -323
413 -32 45 -60 82 -62 82 -11 0 123 -197 231 -341 151 -201 508 -594 533 -587
6 2 41 -37 78 -87 116 -155 253 -303 523 -565 143 -140 258 -257 255 -262 -3
-4 5 -9 18 -10 13 0 28 -2 35 -2 7 -1 31 -19 55 -41 l42 -40 -30 38 c-16 20
-44 56 -63 80 -19 23 24 -17 95 -88 148 -150 258 -240 134 -110 -71 74 -68 72
38 -26 63 -57 139 -120 171 -141 33 -21 103 -87 169 -158 106 -116 111 -124
114 -170 3 -47 4 -48 26 -36 22 12 22 13 6 27 -16 12 -17 12 -11 -3 3 -10 2
-18 -3 -18 -5 0 -9 11 -8 25 2 22 8 19 73 -43 38 -38 109 -94 157 -125 87 -57
87 -58 94 -106 l6 -50 35 17 c38 18 37 19 -23 60 -11 7 -4 5 15 -4 43 -20 88
-66 286 -289 299 -336 538 -620 824 -980 101 -126 189 -234 195 -239 9 -6 73
37 206 138 l193 148 268 -268 268 -268 40 35 c22 19 122 113 223 209 366 350
902 825 919 815 5 -4 9 0 9 8 0 32 769 652 1290 1042 177 132 223 168 190 149
-25 -14 -409 -263 -487 -315 -40 -27 -76 -49 -80 -49 -25 0 381 376 598 552
238 194 256 203 64 33 -130 -115 -154 -139 -102 -101 20 15 42 24 49 20 6 -4
8 -3 4 4 -3 6 8 21 26 33 l33 23 -25 -29 c-21 -24 196 118 436 284 48 34 68
42 95 39 l34 -3 -100 -89 c-205 -183 -686 -587 -853 -716 l-27 -21 30 15 c109
55 689 443 915 612 129 98 318 254 306 254 -4 0 -48 -31 -99 -68 -76 -56 -191
-137 -359 -254 -51 -35 -29 -11 30 32 117 88 372 294 368 298 -2 2 64 60 147
130 358 298 732 713 972 1077 139 212 311 535 400 753 21 51 40 91 41 89 6 -6
-60 -193 -135 -386 -45 -112 -75 -205 -78 -239 -6 -53 -5 -54 15 -43 72 38
230 291 357 568 87 192 190 472 209 568 8 44 22 102 30 129 11 38 12 54 4 70
-26 47 -40 152 -47 346 -9 219 -29 410 -43 410 -4 0 -8 -7 -8 -15 0 -16 -16
-20 -24 -6 -3 5 -21 78 -40 163 -55 243 -127 448 -159 448 -7 0 -23 28 -36 61
-71 184 -213 434 -354 622 -46 62 -105 150 -132 197 -40 72 -79 132 -195 303
-14 21 -14 21 5 6 86 -67 237 -204 320 -290 135 -140 227 -250 385 -464 166
-223 214 -282 250 -300 62 -32 46 4 -133 305 -227 381 -425 641 -700 919 -420
424 -862 717 -1402 927 l-150 58 -175 2 c-96 1 -215 -1 -265 -6z m-960 -124
c39 -32 72 -61 74 -62 2 -2 2 -4 -2 -4 -10 0 -142 111 -160 136 l-19 24 -39
-60 c-21 -33 -41 -60 -43 -60 -3 0 14 30 37 66 l42 66 20 -24 c11 -13 52 -50
90 -82z m-3950 1 c14 -13 -25 8 -50 26 -18 14 -21 14 -33 -6 -10 -16 -12 -17
-8 -4 3 10 6 25 6 33 0 11 10 7 38 -12 20 -16 42 -32 47 -37z m133 3 c-15 -24
-19 -21 -11 8 3 12 9 19 14 16 5 -3 3 -14 -3 -24z m-237 -37 c-12 -20 -14 -14
-5 12 4 9 9 14 11 11 3 -2 0 -13 -6 -23z m179 -13 c0 -5 -4 -12 -10 -15 -6 -3
-7 1 -4 9 3 9 2 16 -3 16 -5 0 -18 7 -29 15 -17 14 -15 14 14 0 17 -8 32 -20
32 -25z m-224 -86 c-19 -38 -35 -66 -36 -62 0 11 63 138 68 134 2 -2 -13 -35
-32 -72z m194 36 c-6 -11 -13 -20 -16 -20 -2 0 0 9 6 20 6 11 13 20 16 20 2 0
0 -9 -6 -20z m580 -28 c0 -4 -29 -25 -65 -47 -35 -22 -64 -44 -64 -50 0 -5 10
-23 23 -39 l24 -29 32 57 c38 67 59 72 83 19 l18 -38 -20 25 c-12 14 -21 28
-21 33 0 23 -29 0 -55 -45 -16 -29 -34 -53 -40 -54 -5 -2 -22 16 -36 38 l-27
42 57 33 c31 19 63 41 71 49 16 16 20 17 20 6z m3054 -17 c-9 -14 -18 -25 -21
-25 -5 0 5 18 20 38 17 22 18 13 1 -13z m-3666 -7 c-44 -70 -64 -107 -84 -157
-13 -31 -24 -49 -24 -41 0 30 101 220 117 220 3 0 -1 -10 -9 -22z m3292 7 c14
-8 21 -14 15 -14 -5 0 -21 6 -35 14 -14 8 -20 14 -15 14 6 0 21 -6 35 -14z
m-3925 -25 c3 -5 1 -10 -4 -10 -6 0 -11 5 -11 10 0 6 2 10 4 10 3 0 8 -4 11
-10z m3882 -27 c-3 -10 -5 -4 -5 12 0 17 2 24 5 18 2 -7 2 -21 0 -30z m153 10
c30 -11 31 -12 6 -8 -16 4 -43 13 -60 20 -23 11 -25 13 -6 8 14 -3 41 -12 60
-20z m455 18 c-6 -5 -35 -22 -65 -38 -30 -16 -67 -37 -82 -47 -28 -18 -28 -18
-62 12 -31 27 -33 32 -21 49 13 17 14 17 9 -2 -3 -13 4 -29 20 -44 25 -23 26
-24 53 -5 31 20 145 83 153 84 2 0 0 -4 -5 -9z m-4389 -59 c-5 -4 -86 36 -86
43 0 3 20 -5 45 -17 24 -12 43 -23 41 -26z m-119 16 c-3 -8 -6 -5 -6 6 -1 11
2 17 5 13 3 -3 4 -12 1 -19z m3728 1 c22 -10 29 -16 15 -13 -28 7 -80 33 -65
33 6 0 28 -9 50 -20z m442 -10 c50 -16 61 -24 55 -37 -6 -15 -7 -15 -10 -1 -1
9 -28 24 -65 36 -34 12 -57 22 -51 22 5 1 38 -8 71 -20z m-3726 -16 c-12 -20
-14 -14 -5 12 4 9 9 14 11 11 3 -2 0 -13 -6 -23z m3505 -20 c-5 -6 -66 19 -66
27 0 4 16 0 35 -8 19 -9 33 -17 31 -19z m-3966 -18 c-16 -47 -23 -40 -8 8 6
20 13 35 16 33 2 -3 -1 -21 -8 -41z m200 25 c8 -5 11 -10 5 -10 -5 0 -17 5
-25 10 -8 5 -10 10 -5 10 6 0 17 -5 25 -10z m1437 -26 c-4 -15 -5 -14 -6 4 -1
15 -5 21 -13 16 -7 -5 -8 -3 -3 5 10 18 28 -2 22 -25z m2030 4 c-3 -7 -5 -2
-5 12 0 14 2 19 5 13 2 -7 2 -19 0 -25z m202 5 c0 -10 -4 -27 -9 -38 -6 -15
-8 -11 -7 17 1 21 5 38 10 38 4 0 7 -8 6 -17z m-3619 -3 c8 -5 11 -10 5 -10
-5 0 -17 5 -25 10 -8 5 -10 10 -5 10 6 0 17 -5 25 -10z m1728 -27 c-1 -36 -1
-36 -5 -7 l-4 32 -60 -19 c-34 -11 -68 -19 -77 -18 -14 0 112 43 141 48 4 0 6
-16 5 -36z m2060 13 c26 -14 61 -37 77 -52 l30 -26 -35 24 c-19 14 -57 37 -85
51 -27 14 -46 26 -42 27 4 0 29 -11 55 -24z m-2463 4 c-3 -5 -12 -10 -18 -10
-7 0 -6 4 3 10 19 12 23 12 15 0z m615 -5 c0 -8 -3 -14 -7 -13 -5 2 -28 -11
-53 -28 -50 -34 -89 -55 -50 -27 13 10 43 32 65 50 48 38 45 37 45 18z m2040
-13 c0 -10 -6 -27 -14 -38 -13 -17 -13 -15 -3 19 13 41 17 46 17 19z m-3793
-14 c-3 -8 -6 -5 -6 6 -1 11 2 17 5 13 3 -3 4 -12 1 -19z m1054 -4 l-54 -25
28 -29 28 -29 26 22 c15 12 47 31 71 42 25 11 48 24 52 30 5 6 8 6 8 -2 0 -7
-27 -24 -59 -39 -33 -14 -68 -35 -77 -45 -17 -19 -18 -19 -56 18 l-38 37 53
22 c71 30 85 28 18 -2z m2166 4 c-3 -8 -6 -5 -6 6 -1 11 2 17 5 13 3 -3 4 -12
1 -19z m-1854 -5 c-7 -2 -19 -2 -25 0 -7 3 -2 5 12 5 14 0 19 -2 13 -5z m431
-70 c20 -40 34 -73 31 -73 -5 0 -75 136 -75 146 0 12 6 1 44 -73z m-2265 28
c-6 -18 -13 -30 -15 -28 -2 2 1 18 7 36 6 18 13 30 15 28 2 -2 -1 -18 -7 -36z
m1788 33 c-3 -3 -12 -4 -19 -1 -8 3 -5 6 6 6 11 1 17 -2 13 -5z m-1266 -89
c10 -16 18 -41 18 -55 -1 -23 -2 -22 -8 5 -10 41 -25 66 -55 94 -14 14 -26 29
-26 35 1 12 42 -34 71 -79z m3153 51 c-3 -15 -8 -25 -11 -23 -2 3 -1 17 3 31
3 15 8 25 11 23 2 -3 1 -17 -3 -31z m191 -37 c-8 -35 -15 -76 -15 -91 0 -16
-5 -28 -12 -27 -19 1 -115 37 -102 38 6 1 31 -6 54 -14 53 -19 50 -19 50 6 0
28 31 161 36 156 3 -2 -2 -33 -11 -68z m-1853 19 c-6 -6 -7 0 -4 19 5 21 7 23
10 9 2 -10 0 -22 -6 -28z m2202 -3 c-9 -14 -17 -24 -18 -23 -1 2 -8 12 -16 23
-14 18 -13 19 1 7 13 -10 19 -9 29 3 20 24 22 18 4 -10z m-3624 -32 c0 -39 -6
-54 -32 -83 l-30 -35 26 37 c19 27 26 49 26 82 0 25 2 46 5 46 3 0 5 -21 5
-47z m1482 35 c-5 -7 -12 -24 -15 -38 -4 -22 -4 -21 -6 7 -1 26 6 38 28 42 2
1 -1 -5 -7 -11z m-82 -12 c0 -2 -18 -15 -40 -30 -22 -14 -40 -24 -40 -22 0 5
71 56 77 56 2 0 3 -2 3 -4z m1668 -32 c-3 -23 3 -29 32 -40 19 -7 30 -13 24
-13 -17 -1 -74 20 -74 27 0 14 13 52 17 52 2 0 2 -12 1 -26z m-2872 -16 c13
-15 14 -19 3 -10 -14 11 -18 9 -23 -13 -3 -13 -20 -40 -36 -59 -17 -18 -30
-37 -30 -41 0 -4 29 -5 65 -3 35 2 59 0 52 -4 -17 -11 -109 -10 -127 2 -12 7
-9 13 13 30 31 25 57 70 57 100 0 25 3 25 26 -2z m989 -64 c4 -25 3 -24 -8 6
-8 19 -17 46 -20 60 -5 19 -3 17 8 -6 7 -17 16 -44 20 -60z m80 4 c-27 -29
-50 -55 -52 -57 -2 -2 -3 -1 -3 3 0 8 90 106 98 106 2 0 -17 -24 -43 -52z
m212 15 c-3 -10 -5 -4 -5 12 0 17 2 24 5 18 2 -7 2 -21 0 -30z m-1608 -15 c12
-21 20 -38 18 -38 -7 0 -47 65 -47 75 0 10 1 8 29 -37z m397 3 c2 -19 1 -19
-3 -1 -2 11 -11 20 -18 20 -8 0 -17 4 -20 10 -4 6 2 7 17 1 13 -5 24 -17 24
-30z m69 -30 c-19 -14 -34 -34 -35 -44 0 -25 53 -74 88 -82 23 -5 30 -14 40
-49 6 -24 24 -59 39 -77 l27 -34 -27 25 c-15 13 -35 46 -45 72 -10 30 -24 50
-37 54 -11 4 -35 18 -54 31 l-33 26 -25 -29 c-24 -28 -24 -27 2 11 l26 40 -30
-35 c-17 -19 -29 -40 -27 -47 3 -7 0 -12 -7 -10 -7 1 -12 -8 -11 -20 0 -13 -1
-21 -4 -18 -13 12 -32 -29 -33 -72 l-2 -48 -6 56 c-5 51 -12 63 -66 125 -33
38 -52 63 -42 55 10 -8 17 -9 17 -3 0 6 -4 14 -10 17 -5 3 -10 11 -10 16 0 6
10 3 22 -5 29 -20 110 -21 148 -1 17 9 30 18 30 21 0 3 -4 2 -10 -1 -16 -10
-11 1 7 16 11 10 14 10 9 2 -4 -8 -2 -13 7 -13 7 0 20 11 27 25 9 16 16 21 21
14 5 -8 9 -7 15 2 4 7 3 14 -4 17 -7 2 -12 8 -12 14 0 6 9 3 20 -7 19 -18 19
-18 -15 -44z m2612 22 c-3 -10 -5 -4 -5 12 0 17 2 24 5 18 2 -7 2 -21 0 -30z
m-1202 -14 c9 -17 15 -33 13 -35 -3 -2 -12 12 -21 31 -21 43 -13 47 8 4z
m-258 -36 c-3 -10 -5 -2 -5 17 0 19 2 27 5 18 2 -10 2 -26 0 -35z m-1608 -39
c-25 -26 -52 -44 -64 -43 -20 1 -20 1 0 6 27 7 96 74 88 86 -4 6 -1 7 6 2 9
-5 0 -20 -30 -51z m1330 11 c0 -5 -4 -3 -9 5 -5 8 -9 22 -9 30 0 16 17 -16 18
-35z m-2284 24 c19 -9 18 -9 -2 -5 -21 4 -23 0 -23 -34 l0 -37 58 -6 c60 -7
137 -26 130 -32 -2 -3 -20 0 -40 6 -20 5 -63 13 -95 17 l-58 7 -3 48 c-3 49 0
52 33 36z m557 -28 c83 -34 161 -72 118 -58 -31 11 -214 87 -218 92 -10 10 6
4 100 -34z m-185 7 c-3 -8 -6 -5 -6 6 -1 11 2 17 5 13 3 -3 4 -12 1 -19z m731
5 c30 5 33 4 18 -5 -10 -6 -38 -8 -63 -4 -41 5 -47 3 -81 -30 -20 -19 -62 -57
-92 -84 -51 -45 -54 -51 -42 -71 7 -11 12 -23 9 -25 -2 -2 -10 7 -17 21 -13
24 -11 28 26 67 37 40 36 40 -16 -6 -30 -27 -63 -59 -74 -70 -18 -21 -18 -21
-3 5 15 25 15 28 -1 41 -34 30 -43 30 -63 4 -11 -14 -30 -31 -42 -37 -15 -7
-11 -2 10 17 17 16 35 37 40 46 8 16 12 15 48 -13 l40 -31 -42 39 c-38 35 -41
41 -35 77 4 21 10 38 14 37 25 -6 90 -41 78 -41 -8 0 -31 9 -50 20 -35 20 -35
20 -12 1 29 -25 88 -42 119 -35 13 4 23 2 23 -5 0 -18 71 31 93 64 19 30 24
32 50 23 15 -6 45 -8 65 -5z m-1013 -3 c27 -7 27 -8 5 -8 -14 0 -36 4 -50 8
-20 6 -21 8 -5 8 11 0 34 -4 50 -8z m2482 -82 c-2 -18 -4 -6 -4 27 0 33 2 48
4 33 2 -15 2 -42 0 -60z m-2399 65 c-10 -2 -26 -2 -35 0 -10 3 -2 5 17 5 19 0
27 -2 18 -5z m65 -10 c-7 -2 -21 -2 -30 0 -10 3 -4 5 12 5 17 0 24 -2 18 -5z
m3304 0 c-14 -4 -17 -12 -12 -41 5 -37 1 -32 -15 21 -8 25 -7 27 18 26 18 -1
21 -3 9 -6z m157 -9 c3 -9 6 -21 5 -27 0 -7 -4 -3 -8 8 -5 13 -21 22 -47 26
l-39 6 41 2 c30 1 44 -4 48 -15z m-3417 0 c-3 -3 -12 -4 -19 -1 -8 3 -5 6 6 6
11 1 17 -2 13 -5z m425 -36 c-6 -6 -7 0 -4 19 5 21 7 23 10 9 2 -10 0 -22 -6
-28z m-912 7 l55 -15 -47 6 -48 5 0 -60 0 -60 53 24 c28 14 59 25 67 25 8 0
-11 -11 -43 -24 -32 -13 -64 -29 -71 -36 -12 -9 -15 2 -18 69 -2 45 -3 81 -3
81 0 -1 25 -7 55 -15z m3077 -42 c-3 -10 -5 -4 -5 12 0 17 2 24 5 18 2 -7 2
-21 0 -30z m-2938 -5 c-2 -30 -2 -30 -6 -6 -3 22 -10 28 -36 31 -31 4 -31 4 6
5 36 2 37 1 36 -30z m3778 -5 c-3 -10 -5 -4 -5 12 0 17 2 24 5 18 2 -7 2 -21
0 -30z m-3512 7 c3 -6 -1 -7 -9 -4 -18 7 -21 14 -7 14 6 0 13 -4 16 -10z
m2015 -19 c0 -35 16 -81 28 -81 5 0 14 10 21 23 8 15 10 16 6 3 -3 -12 3 -29
17 -45 l23 -26 -29 25 c-18 15 -27 19 -24 10 7 -24 80 -60 121 -60 21 0 52 6
70 14 30 13 115 92 110 101 -2 3 -3 15 -2 28 0 12 8 -3 18 -33 9 -30 23 -65
30 -78 16 -30 69 -62 102 -62 41 0 51 -18 27 -51 -30 -41 -35 -116 -10 -164
l20 -39 -31 -38 c-22 -27 -31 -51 -35 -89 -3 -28 -1 -54 4 -58 5 -3 18 -23 29
-45 29 -56 75 -84 133 -80 43 3 44 2 12 -5 l-35 -8 33 -2 c31 -1 32 -2 32 -47
0 -57 23 -108 61 -135 20 -14 29 -29 29 -47 0 -72 72 -142 146 -142 25 0 44
-5 44 -11 0 -19 53 -86 86 -109 18 -12 54 -25 81 -30 39 -6 42 -8 15 -9 -60
-2 -118 34 -169 104 l-21 29 -11 -42 c-32 -119 72 -223 191 -191 50 13 123 80
114 104 -3 9 -2 13 4 10 12 -8 25 23 60 145 15 52 33 97 41 101 8 4 40 14 71
23 90 26 132 88 132 196 -1 80 -8 148 -21 203 -7 32 -11 62 -8 67 3 6 1 10 -4
10 -6 0 -11 8 -11 17 0 15 2 14 15 -4 8 -12 12 -29 8 -39 -5 -13 -3 -15 7 -9
10 6 12 2 8 -16 -3 -13 -2 -35 2 -49 7 -21 8 -19 9 17 1 50 -11 86 -44 125
-14 16 -25 33 -25 38 0 4 27 10 60 12 33 2 66 10 73 17 9 10 9 11 -3 8 -8 -2
-11 -2 -7 1 5 2 0 14 -10 26 -15 17 -13 17 9 -3 32 -28 51 -23 79 21 16 27 19
44 16 96 -5 70 11 85 31 29 16 -43 60 -85 108 -102 22 -8 31 -14 21 -15 -38 0
-106 52 -135 105 -10 17 -11 12 -12 -31 0 -37 -7 -61 -24 -87 -14 -20 -22 -38
-18 -40 4 -2 0 -2 -8 0 -10 2 -8 -3 5 -13 15 -12 36 -15 84 -12 62 4 66 6 106
50 22 25 52 49 65 53 36 11 90 45 90 57 0 5 -14 -2 -31 -16 -17 -14 -36 -26
-42 -26 -7 0 2 9 19 19 18 11 35 24 39 30 3 6 11 8 17 5 6 -4 8 2 3 17 -4 16
-3 20 3 11 7 -11 10 -10 16 3 3 9 6 28 6 41 0 14 7 27 16 31 9 3 25 24 35 47
10 23 19 37 19 32 0 -6 7 -1 16 10 15 17 15 17 0 -8 -9 -16 -24 -40 -33 -55
-10 -14 -18 -31 -19 -37 -2 -6 -19 -47 -38 -91 -19 -44 -42 -107 -51 -140 -23
-83 -31 -270 -16 -355 l12 -68 -46 -88 -47 -89 48 55 c113 129 235 248 325
315 210 157 505 301 647 315 55 6 82 14 110 34 l37 26 35 -40 c72 -82 175 -82
244 0 14 18 26 40 26 51 0 31 41 39 178 37 l127 -2 -137 -5 c-75 -4 -139 -9
-143 -12 -11 -12 46 -68 81 -79 76 -25 166 13 194 81 l14 32 115 -7 c203 -12
431 -48 431 -68 0 -5 -6 -6 -12 -2 -28 18 21 -42 53 -64 29 -20 43 -23 89 -19
72 7 88 11 102 25 19 19 31 14 55 -23 15 -23 18 -37 11 -41 -6 -4 -9 -3 -5 2
3 5 -5 22 -18 38 -19 24 -26 27 -38 18 -8 -7 -13 -24 -11 -40 l4 -27 -10 25
c-8 20 -9 18 -4 -15 7 -50 29 -91 54 -105 11 -6 32 -29 45 -51 14 -22 41 -47
60 -56 30 -14 34 -22 41 -67 8 -64 20 -95 42 -113 10 -9 11 -12 2 -7 -8 4 -1
-8 15 -28 35 -42 83 -63 131 -55 l33 6 7 -50 c4 -28 16 -64 28 -82 27 -40 81
-77 115 -78 14 0 20 -3 13 -6 -23 -9 -62 7 -101 42 -40 37 -56 66 -65 125 -6
34 -8 35 -48 35 -24 0 -53 4 -66 8 -19 7 -24 4 -37 -25 -8 -18 -14 -26 -15
-18 0 9 7 26 16 38 8 12 11 22 6 22 -9 0 -24 -31 -37 -77 -9 -34 13 -103 44
-134 15 -15 47 -33 71 -40 36 -11 49 -11 88 4 55 19 62 13 60 -53 l-1 -45 -7
50 -7 50 -1 -42 c-2 -47 13 -97 27 -89 5 3 15 -2 22 -11 18 -21 71 -43 106
-44 15 0 22 -3 15 -6 -24 -10 -81 8 -113 35 -18 14 -30 20 -27 12 2 -8 24 -25
49 -38 105 -56 211 8 239 145 8 39 10 90 4 162 -7 92 -9 99 -14 56 -4 -35 -7
-44 -12 -30 -4 11 -1 44 5 73 l13 53 22 -24 c15 -16 22 -36 22 -65 0 -81 59
-164 124 -176 20 -4 36 -8 36 -10 0 -2 -7 -20 -15 -39 -8 -20 -15 -48 -15 -62
0 -21 -5 -25 -27 -25 -16 0 -39 -3 -53 -5 -22 -5 -22 -4 -5 4 11 5 32 10 48
10 20 1 27 6 27 21 0 11 6 36 14 55 l15 34 -36 10 c-43 12 -51 8 -69 -33 -7
-17 -13 -24 -14 -15 0 9 9 28 21 43 11 14 17 26 12 26 -5 0 -17 -15 -28 -32
-22 -37 -26 -148 -6 -172 9 -10 9 -16 1 -21 -6 -4 -10 -3 -9 2 4 23 -3 24 -26
3 -31 -29 -34 -51 -3 -24 20 18 20 17 -2 -13 -13 -18 -27 -30 -32 -27 -14 9
-9 22 25 60 26 30 28 35 10 25 -30 -16 -63 -82 -63 -126 0 -63 64 -162 122
-189 11 -5 11 -7 0 -12 -27 -12 -73 -57 -87 -85 -29 -55 -12 -142 34 -184 13
-11 21 -15 20 -10 -4 12 18 75 25 75 3 0 0 -14 -6 -30 -13 -39 -3 -80 20 -80
13 0 14 -2 3 -9 -18 -12 -7 -42 26 -72 l27 -24 -27 33 c-15 19 -27 39 -27 45
0 7 6 3 12 -8 6 -11 22 -33 37 -49 14 -16 20 -26 14 -22 -7 4 -13 3 -13 -1 0
-5 -11 -10 -25 -11 -95 -8 -156 -113 -121 -206 21 -55 43 -74 108 -96 51 -17
52 -18 28 -28 -32 -13 -76 -60 -85 -91 -12 -39 -8 -97 9 -130 9 -16 16 -39 16
-51 0 -11 5 -20 11 -20 5 0 7 5 3 12 -5 7 -3 8 6 3 11 -7 10 -11 -5 -19 -42
-25 -77 -63 -90 -101 -8 -22 -14 -32 -15 -22 0 10 7 31 15 47 14 28 14 30 -2
30 -10 0 -33 -9 -51 -20 -19 -12 -31 -16 -27 -10 11 18 67 42 86 37 10 -3 23
1 30 9 10 12 6 13 -22 8 -100 -19 -153 -93 -135 -189 8 -41 53 -98 72 -91 8 3
13 0 11 -7 -1 -6 8 -13 21 -15 27 -4 30 -22 3 -22 -11 0 -32 -15 -46 -32 -15
-18 -24 -26 -20 -18 5 8 17 26 29 39 15 17 17 23 5 19 -8 -3 -26 0 -40 8 -28
16 -17 19 14 3 21 -10 21 -10 2 6 -29 23 -93 38 -134 30 -45 -8 -104 -52 -97
-71 3 -8 0 -13 -6 -11 -7 1 -16 -17 -21 -40 -8 -35 -6 -53 12 -100 19 -50 20
-58 6 -65 -8 -5 -15 -19 -15 -32 0 -13 -8 -30 -17 -37 -16 -12 -17 -12 -7 1
18 23 14 51 -5 40 -42 -22 -81 -93 -81 -146 0 -44 -8 -42 -12 4 -2 26 -5 29
-17 19 -21 -18 -41 -71 -41 -110 0 -22 -8 -41 -21 -53 -49 -44 -63 -128 -30
-192 29 -57 131 -107 131 -64 0 9 4 22 8 29 4 7 7 -9 7 -34 l-1 -46 -50 -13
c-82 -21 -126 -93 -109 -181 l7 -37 20 32 c28 44 32 40 8 -8 -18 -36 -24 -40
-59 -40 -32 0 -43 6 -65 35 -36 46 -74 65 -134 65 -88 0 -153 -68 -151 -155 1
-39 2 -39 9 11 4 28 13 60 19 73 15 27 69 61 96 60 16 -1 15 -2 -6 -8 -66 -21
-99 -63 -99 -130 0 -16 -3 -36 -6 -45 -5 -14 -9 -14 -34 -1 -37 19 -113 19
-150 0 -39 -20 -68 -60 -76 -104 -5 -23 -20 -48 -44 -71 -46 -43 -67 -107 -52
-160 6 -19 8 -49 5 -66 l-5 -32 -61 5 c-34 3 -64 8 -67 11 -3 2 23 2 58 0 45
-3 62 -1 62 8 0 7 -8 15 -17 17 -13 3 -11 5 7 7 22 2 21 3 -8 10 -48 11 -100
-4 -136 -39 -37 -36 -68 -114 -61 -151 5 -22 4 -22 -4 -5 -7 15 -10 16 -10 4
-1 -13 -11 -15 -55 -11 -93 8 -162 -43 -173 -128 -3 -22 -11 -44 -17 -49 -6
-5 -39 -11 -74 -13 -73 -5 -105 -25 -142 -89 -23 -39 -49 -57 -280 -190 -224
-128 -255 -149 -258 -172 -2 -15 -1 -27 3 -27 3 0 40 20 83 44 42 24 97 53
122 66 85 42 25 3 -130 -85 -169 -96 -457 -280 -730 -468 -255 -176 -254 -175
-233 -179 12 -2 -72 -64 -232 -172 -284 -192 -337 -231 -185 -139 82 50 110
65 110 59 0 -3 -31 -23 -68 -46 -38 -22 -190 -137 -340 -255 -149 -118 -273
-215 -275 -215 -2 0 -7 21 -10 46 -6 55 -31 93 -78 116 -33 17 -120 26 -105
11 4 -4 21 -7 39 -7 31 1 31 1 3 -3 l-29 -4 74 -75 74 -75 6 33 c6 30 7 29 6
-10 -1 -23 -3 -41 -6 -40 -15 7 -334 338 -326 338 5 0 20 -10 34 -22 l26 -22
-25 26 c-14 15 -74 72 -134 126 l-109 99 -1 61 c-2 97 -57 155 -151 159 l-55
2 -133 123 c-225 209 -555 495 -709 615 -82 63 -148 116 -148 119 0 3 45 -29
100 -71 54 -41 102 -75 105 -75 3 0 5 12 5 28 0 31 13 20 -356 305 -232 179
-249 194 -435 398 -231 252 -284 309 -272 289 6 -8 46 -64 90 -125 102 -141
106 -150 47 -94 -27 26 -55 48 -63 51 -29 8 -411 384 -559 549 -125 139 -131
147 -116 153 8 3 14 0 14 -7 0 -8 4 -6 10 3 17 26 11 93 -13 134 -27 47 -77
76 -133 76 -39 0 -42 -2 -46 -31 -4 -27 4 -39 71 -106 l76 -76 -72 62 c-39 35
-74 70 -78 79 -4 9 -8 58 -8 109 -2 90 -3 93 -36 127 -19 19 -47 38 -63 41
-17 4 -28 13 -28 23 0 62 -63 162 -102 162 -7 0 1 -9 19 -20 17 -10 37 -29 43
-42 11 -21 9 -20 -12 4 -58 66 -96 53 -58 -21 28 -55 18 -52 -13 4 -21 37 -23
46 -11 56 24 19 16 39 -15 39 -26 0 -32 8 -75 100 -25 55 -46 105 -46 110 0 6
10 9 23 9 16 -1 18 -2 5 -6 -10 -2 -18 -6 -18 -9 0 -2 20 -47 44 -99 35 -74
49 -95 65 -95 15 0 22 9 26 38 10 58 16 62 11 7 -4 -45 -3 -47 6 -18 12 35 -2
109 -19 106 -6 -1 -10 5 -9 14 1 22 -59 62 -106 69 -43 7 -45 10 -21 36 10 12
18 41 21 78 4 49 0 65 -18 96 -22 35 -85 73 -121 74 -17 0 -55 77 -44 88 3 3
27 -2 53 -10 75 -26 107 -30 153 -18 115 31 156 166 78 255 -19 21 -44 37 -65
41 -38 7 -41 12 -18 29 14 9 15 20 9 51 -7 33 -9 35 -13 14 -2 -14 -7 -29 -11
-33 -4 -4 -6 6 -3 22 8 59 27 55 40 -9 7 -33 16 -60 21 -60 9 0 24 103 23 162
0 21 -10 53 -22 73 -21 33 -21 37 -6 60 9 14 19 46 22 72 8 62 40 133 60 133
26 0 81 63 93 105 7 28 8 51 0 80 -22 83 -91 124 -206 125 l-73 0 0 85 c0 79
1 85 20 85 19 0 80 -26 80 -34 0 -2 -8 -10 -17 -17 -16 -12 -17 -12 -6 2 11
13 9 18 -13 27 -44 21 -54 16 -54 -28 0 -22 5 -40 11 -40 16 0 51 20 79 45 14
12 41 25 60 29 63 11 142 35 167 51 42 28 64 75 61 130 l-3 50 -46 -3 c-26 -2
-49 0 -52 5 -3 4 19 8 49 8 30 0 54 3 54 7 0 4 10 12 23 18 20 10 20 10 5 -3
-25 -20 -23 -26 17 -43 47 -19 81 -18 132 7 45 22 83 76 83 118 0 17 7 19 53
18 60 -1 107 21 141 66 23 30 28 107 12 160 -8 27 -8 27 38 27 25 0 60 6 78
14 18 8 52 19 75 25 85 23 133 123 99 205 -22 53 -21 56 22 56 73 0 142 68
142 142 0 20 5 40 12 44 6 4 8 3 4 -4 -3 -5 10 -20 29 -32 28 -17 47 -21 94
-18 45 2 63 -1 78 -14 25 -23 86 -48 115 -48 40 1 108 38 126 70 21 37 26 37
42 0 26 -64 108 -99 182 -80 54 15 94 57 108 112 l11 45 52 -4 c41 -3 61 1 91
19 22 13 41 30 43 38 3 9 1 11 -4 5 -4 -5 -17 -17 -28 -25 -15 -11 -14 -8 4
12 13 15 28 25 33 22 4 -3 11 2 14 10 8 21 24 21 24 0 0 -26 37 -70 74 -88 98
-46 209 11 223 114 l6 40 41 -6 c22 -4 46 -11 52 -15 6 -5 13 -7 16 -4 3 3 20
-1 39 -9 19 -9 28 -15 21 -16 -7 0 -23 5 -35 11 -21 9 -21 9 -4 -5 33 -26 91
-30 139 -8 24 10 50 27 58 38 14 18 14 18 -5 3 -11 -9 -27 -19 -35 -23 -8 -4
-3 2 12 14 23 18 26 25 18 46 -6 14 -10 36 -10 49 0 19 -4 23 -17 19 -15 -5
-16 -4 -3 5 24 17 30 13 30 -18z m-1922 -24 c-6 -20 -14 -34 -18 -32 -4 3 -1
20 8 40 20 44 25 40 10 -8z m3249 6 c-3 -10 -5 -4 -5 12 0 17 2 24 5 18 2 -7
2 -21 0 -30z m-3283 -12 c-3 -3 -15 6 -27 18 l-22 24 27 -19 c14 -10 24 -21
22 -23z m1896 32 c-8 -4 -21 -13 -28 -22 -11 -14 -11 -13 -2 7 6 12 18 22 28
21 14 0 14 -2 2 -6z m1047 -41 c-3 -12 -5 -11 -6 6 0 12 -6 22 -12 22 -5 0 -7
5 -3 11 9 16 27 -16 21 -39z m-1290 -4 c1 -30 1 -31 -6 -8 -7 21 -5 40 2 40 2
0 3 -15 4 -32z m402 -23 c9 -12 4 -8 -11 7 -16 16 -28 34 -28 41 0 6 6 3 12
-8 6 -11 18 -29 27 -40z m851 50 c0 -6 -56 -35 -67 -35 -4 1 8 9 27 20 39 22
40 22 40 15z m557 -57 c-2 -13 -4 -3 -4 22 0 25 2 35 4 23 2 -13 2 -33 0 -45z
m-3832 32 c-10 -11 -42 -39 -72 -61 -29 -23 -51 -44 -49 -46 2 -3 34 12 70 32
36 20 66 35 66 32 0 -10 -163 -97 -171 -91 -5 3 -9 -2 -9 -10 0 -9 -15 -23
-32 -32 -18 -9 -49 -28 -68 -41 -70 -50 64 68 156 137 50 38 96 76 104 84 7 9
15 16 18 16 3 0 -3 -9 -13 -20z m32 -27 c-3 -10 -5 -2 -5 17 0 19 2 27 5 18 2
-10 2 -26 0 -35z m1404 2 c7 -13 3 -12 -10 5 -11 14 -21 30 -21 35 0 11 14 -7
31 -40z m631 3 c7 -15 4 -18 -14 -17 -13 0 -17 3 -11 6 8 3 11 15 8 31 -3 15
-2 20 1 12 4 -8 11 -23 16 -32z m-167 -16 l-28 -27 24 31 c13 17 26 30 28 27
3 -2 -8 -16 -24 -31z m93 -32 c-1 -34 -1 -34 -5 -5 -3 17 -14 41 -26 54 l-22
24 27 -19 c22 -15 27 -27 26 -54z m202 40 c-19 -17 -38 -30 -44 -30 -9 0 64
58 74 59 3 0 -11 -13 -30 -29z m786 -3 c-3 -14 -18 -32 -33 -42 l-28 -17 28
26 c15 15 27 36 27 48 0 12 3 19 6 15 4 -3 4 -17 0 -30z m-2249 -9 c-7 -4 -31
-8 -54 -8 -38 0 -43 -3 -43 -23 0 -13 -13 -44 -29 -69 -38 -60 -99 -90 -174
-86 -30 2 -53 6 -51 10 3 4 27 4 53 1 39 -4 59 -1 95 17 52 25 96 87 96 136 0
29 1 29 59 29 33 0 54 -3 48 -7z m3060 -7 c16 -10 15 -11 -7 -5 -14 4 -50 11
-80 15 l-55 8 62 -3 c33 -2 69 -9 80 -15z m-2312 -63 c21 -72 12 -71 -12 1
-10 33 -16 58 -11 55 4 -3 14 -28 23 -56z m1000 44 c-3 -3 -11 0 -18 7 -9 10
-8 11 6 5 10 -3 15 -9 12 -12z m-2455 -74 l-4 -83 -6 73 -5 73 -47 -48 -47
-48 54 -29 c30 -16 55 -33 55 -38 0 -5 -13 1 -28 12 -16 12 -45 27 -65 34
l-37 13 64 61 c35 34 66 62 68 62 1 0 1 -37 -2 -82z m1708 62 c22 -7 23 -8 6
-9 -11 -1 -29 6 -40 15 -10 8 -13 12 -6 9 8 -4 26 -11 40 -15z m118 5 c-11 -8
-29 -15 -40 -14 -15 0 -10 4 14 13 46 18 48 18 26 1z m884 -5 c6 -11 8 -20 6
-20 -3 0 -10 9 -16 20 -6 11 -8 20 -6 20 3 0 10 -9 16 -20z m1110 8 c0 -4 -4
-8 -9 -8 -6 0 -12 4 -15 8 -3 5 1 9 9 9 8 0 15 -4 15 -9z m-1270 -8 c-9 -4
-31 -5 -50 0 -34 8 -33 8 15 9 34 0 45 -3 35 -9z m-1729 -31 c-5 -13 -10 -19
-10 -12 -1 15 10 45 15 40 3 -2 0 -15 -5 -28z m1426 25 c-3 -3 -12 -4 -19 -1
-8 3 -5 6 6 6 11 1 17 -2 13 -5z m258 -9 c6 -2 -10 -4 -35 -4 -25 0 -51 3 -59
8 -13 8 69 5 94 -4z m-1555 -71 c-7 -20 -25 -51 -41 -69 -31 -35 -28 -44 22
-64 13 -5 17 -10 9 -10 -8 -1 -30 8 -48 19 l-34 21 27 21 c32 25 64 90 66 133
1 24 3 26 6 7 2 -12 -1 -38 -7 -58z m414 60 c3 -8 2 -12 -4 -9 -6 3 -10 10
-10 16 0 14 7 11 14 -7z m839 9 c-7 -2 -19 -2 -25 0 -7 3 -2 5 12 5 14 0 19
-2 13 -5z m687 3 c0 -2 -8 -10 -17 -17 -16 -13 -17 -12 -4 4 13 16 21 21 21
13z m-106 -27 c29 -6 29 -7 5 -8 -14 -1 -34 6 -45 15 -10 8 -13 12 -5 8 8 -4
28 -11 45 -15z m-1028 -54 c18 -8 52 -16 76 -16 32 -2 36 -3 14 -6 -49 -8 -94
6 -126 38 -16 17 -30 36 -30 42 0 7 8 0 18 -15 9 -16 31 -35 48 -43z m204 56
c0 -14 -60 -71 -73 -71 -7 0 0 8 15 17 15 9 32 27 39 40 13 24 19 29 19 14z
m-527 -70 c-2 -3 -18 10 -36 29 l-32 34 36 -30 c20 -16 34 -31 32 -33z m2165
-5 c29 -35 52 -67 52 -71 0 -4 -19 17 -42 45 -55 67 -72 90 -66 90 2 0 28 -29
56 -64z m-2791 7 c-3 -10 -5 -2 -5 17 0 19 2 27 5 18 2 -10 2 -26 0 -35z
m2721 -21 c-6 -29 -13 -50 -16 -47 -2 2 1 27 8 55 7 28 14 49 16 47 3 -2 -1
-27 -8 -55z m802 45 c0 -7 -8 -13 -17 -14 -10 -1 -37 -5 -60 -9 l-43 -7 5 -41
c4 -40 3 -37 -14 29 -8 30 -7 31 23 27 18 -2 47 3 66 11 19 9 36 16 38 16 1 1
2 -5 2 -12z m-4787 -4 c-7 -2 -19 -2 -25 0 -7 3 -2 5 12 5 14 0 19 -2 13 -5z
m1995 -10 c-10 -2 -28 -2 -40 0 -13 2 -5 4 17 4 22 1 32 -1 23 -4z m4402 -33
c-6 -11 -20 -25 -32 -31 -18 -9 -16 -5 7 19 35 37 39 39 25 12z m-220 -15 c14
-19 14 -19 -2 -6 -10 7 -18 18 -18 24 0 6 1 8 3 6 1 -2 9 -13 17 -24z m-4891
-27 c1 -5 -7 -8 -16 -7 -10 0 -13 3 -7 5 7 3 10 15 8 27 -4 21 -4 21 5 2 5
-11 10 -23 10 -27z m-115 3 c-2 -3 -12 3 -22 13 -16 17 -16 18 5 5 12 -7 20
-15 17 -18z m702 -15 c-17 -33 -62 -66 -88 -66 -7 1 1 7 18 14 34 15 74 60 74
84 0 8 3 12 7 8 4 -4 -1 -22 -11 -40z m4029 28 c14 -9 48 -20 77 -24 51 -7 51
-8 13 -9 -23 0 -58 8 -80 19 -51 26 -69 26 -56 1 14 -25 71 -51 118 -52 25 -1
30 -3 14 -6 -41 -8 -88 6 -120 36 -17 16 -31 34 -31 40 0 16 37 13 65 -5z
m195 -3 c-12 -23 -58 -61 -74 -61 -6 0 4 9 22 20 37 23 42 34 10 25 -14 -3 -9
2 12 14 44 25 43 25 30 2z m-5010 -68 c-11 -17 -11 -17 -6 0 3 10 7 33 8 50
l1 32 4 -32 c2 -18 -1 -41 -7 -50z m471 48 c-12 -22 -60 -51 -83 -51 -7 0 6 9
29 19 23 11 44 29 48 41 4 12 9 19 12 17 2 -3 0 -15 -6 -26z m129 -53 c19 -10
29 -18 22 -18 -24 0 -69 32 -86 60 -24 42 -19 48 7 9 12 -19 38 -42 57 -51z
m5333 75 c-7 -2 -19 -2 -25 0 -7 3 -2 5 12 5 14 0 19 -2 13 -5z m-6149 -98
c29 -27 36 -36 16 -20 -20 17 -46 38 -58 47 -11 9 -22 15 -24 12 -3 -2 -2 11
1 29 5 29 6 29 9 7 2 -14 27 -47 56 -75z m6251 80 c28 -7 41 -13 30 -13 -11 0
-42 6 -70 13 -27 7 -41 13 -30 13 11 0 43 -6 70 -13z m-6339 -22 c-4 -4 -12
-1 -19 7 -9 10 -9 11 1 6 7 -4 12 -2 13 6 0 11 2 11 6 0 3 -7 2 -16 -1 -19z
m431 21 c-3 -3 -12 -4 -19 -1 -8 3 -5 6 6 6 11 1 17 -2 13 -5z m4518 -4 c-11
-5 -27 -9 -35 -9 -9 0 -8 4 5 9 11 5 27 9 35 9 9 0 8 -4 -5 -9z m1369 -42 l51
-1 -44 -4 c-49 -5 -91 9 -118 39 -14 16 -9 14 21 -6 28 -19 53 -26 90 -28z
m-6844 26 c0 -8 -4 -13 -9 -10 -5 3 -49 -45 -99 -107 -50 -61 -104 -129 -121
-149 -27 -32 -29 -37 -14 -41 14 -3 14 -4 -2 -3 -11 0 -27 -4 -35 -8 -16 -10
-5 5 70 90 25 28 80 94 123 147 43 53 80 97 82 97 3 0 5 -7 5 -16z m6038 9
c-10 -2 -26 -2 -35 0 -10 3 -2 5 17 5 19 0 27 -2 18 -5z m-2291 -33 c9 0 14
-2 11 -5 -11 -11 -58 7 -58 22 0 12 2 12 16 -1 8 -9 23 -16 31 -16z m3193 26
c0 -3 -4 -8 -10 -11 -5 -3 -10 -1 -10 4 0 6 5 11 10 11 6 0 10 -2 10 -4z
m-3076 -22 c3 -8 2 -12 -4 -9 -6 3 -10 10 -10 16 0 14 7 11 14 -7z m-3829 -86
c6 -15 2 -18 -21 -17 -24 1 -25 3 -7 6 22 4 22 6 8 33 -8 16 -15 37 -15 47 1
10 7 2 14 -17 7 -19 17 -43 21 -52z m595 -18 c17 -7 29 -15 26 -17 -8 -8 -60
25 -90 56 l-29 30 -18 -22 c-19 -22 -19 -22 -2 10 l17 31 33 -37 c18 -21 46
-44 63 -51z m563 83 c-7 -2 -19 -2 -25 0 -7 3 -2 5 12 5 14 0 19 -2 13 -5z
m2632 -8 c39 -17 21 -18 -25 0 -19 7 -28 14 -20 14 8 0 29 -6 45 -14z m221
-19 l-37 -35 38 -4 c29 -3 25 -4 -17 -5 -55 -1 -55 -1 -30 16 14 9 34 27 45
39 11 13 24 23 29 23 6 0 -7 -15 -28 -34z m-145 -14 c-6 -2 -18 1 -28 7 -11 6
-13 11 -5 11 8 0 10 5 6 13 -4 6 3 3 15 -8 12 -11 18 -21 12 -23z m-3095 9
c-24 -27 -69 -43 -102 -38 -26 4 -25 4 7 6 20 0 51 12 70 25 42 30 47 31 25 7z
m3554 16 c0 -2 -10 -12 -22 -23 l-23 -19 19 23 c18 21 26 27 26 19z m-3797
-96 c13 -14 1 -8 -28 14 -63 47 -69 53 -27 29 18 -10 43 -30 55 -43z m6409 14
c9 -20 9 -20 -6 -1 -9 11 -16 27 -15 35 0 14 1 14 6 1 3 -8 10 -24 15 -35z
m28 0 c-6 -30 -8 -33 -9 -13 -1 25 8 62 14 56 2 -2 -1 -21 -5 -43z m-7029 21
c-9 -10 -9 -21 -3 -33 6 -10 14 -35 20 -55 l10 -37 -65 -22 c-35 -11 -66 -19
-69 -17 -2 3 23 13 56 23 67 20 71 29 45 92 -11 27 -12 39 -4 49 6 8 14 14 16
14 3 0 0 -6 -6 -14z m4252 7 c-7 -2 -19 -2 -25 0 -7 3 -2 5 12 5 14 0 19 -2
13 -5z m60 0 c-7 -2 -21 -2 -30 0 -10 3 -4 5 12 5 17 0 24 -2 18 -5z m-3604
-83 c0 -10 -3 -8 -9 5 -12 27 -12 43 0 25 5 -8 9 -22 9 -30z m-81 -15 c-3 -3
-9 2 -12 12 -6 14 -5 15 5 6 7 -7 10 -15 7 -18z m6555 -37 c-15 -24 -28 -44
-29 -46 -5 -9 -65 31 -75 50 -10 18 -9 20 6 15 9 -4 26 -8 38 -8 16 -1 14 -3
-8 -8 l-30 -7 32 -17 c30 -16 31 -16 47 8 15 23 15 25 -1 25 -12 1 -7 6 12 15
17 7 31 14 33 14 1 1 -10 -18 -25 -41z m-6466 -5 c-3 -10 -5 -4 -5 12 0 17 2
24 5 18 2 -7 2 -21 0 -30z m-87 -84 c-7 -11 -9 -23 -6 -26 11 -11 58 29 71 60
8 19 14 25 15 15 0 -24 -52 -81 -76 -83 -11 0 -25 -4 -32 -9 -7 -4 -4 7 8 26
12 20 21 53 22 83 l2 50 3 -47 c2 -26 -1 -57 -7 -69z m-765 41 c-11 -5 -27 -9
-35 -9 -9 0 -8 4 5 9 11 5 27 9 35 9 9 0 8 -4 -5 -9z m3537 -142 c9 -32 13
-58 9 -58 -3 0 -12 26 -20 57 -12 53 -51 123 -51 93 0 -19 -47 -78 -73 -92
-13 -6 -6 4 15 24 21 19 42 48 48 64 l11 29 22 -30 c12 -16 30 -55 39 -87z
m-3654 52 c32 -57 29 -64 -33 -76 -30 -5 -55 -7 -55 -3 0 14 31 93 41 106 17
19 22 17 47 -27z m288 -13 c-9 -13 -13 -27 -9 -30 11 -12 21 -8 26 11 2 9 3 7
2 -5 -1 -13 2 -23 8 -23 6 0 8 -2 5 -5 -9 -9 -59 18 -54 29 17 41 31 64 34 56
2 -5 -4 -20 -12 -33z m477 -10 c-3 -4 -22 -7 -42 -5 -33 1 -37 4 -32 22 4 18
6 19 9 4 2 -11 13 -18 28 -18 l25 0 -28 25 -28 26 36 -23 c20 -13 35 -27 32
-31z m3546 -19 c-1 -27 -2 -29 -7 -11 -7 21 -7 21 -30 3 -19 -16 -21 -23 -13
-39 18 -33 12 -38 -7 -6 l-19 30 28 17 c15 9 30 21 33 27 12 19 16 12 15 -21z
m-3639 -37 c0 -4 -6 -8 -14 -8 -8 0 -12 6 -9 14 5 13 23 9 23 -6z m2813 12
c-8 -2 -14 -25 -15 -51 -1 -45 -1 -46 -5 -8 -5 45 1 66 19 65 10 0 10 -2 1 -6z
m-2858 -31 c-6 -4 -24 -18 -40 -32 -29 -24 -29 -23 2 8 18 17 36 32 40 32 4 0
3 -3 -2 -8z m50 -78 c-3 -18 -10 -36 -15 -39 -6 -4 -6 4 0 20 6 15 11 43 11
63 1 26 3 30 6 13 3 -13 2 -39 -2 -57z m6838 66 c8 0 7 -4 -1 -12 -9 -9 -16
-8 -30 6 -16 18 -16 19 1 12 10 -3 24 -6 30 -6z m-3893 -17 c-14 -9 -34 -23
-46 -32 -11 -9 -5 -1 15 17 19 17 39 32 45 32 6 0 -1 -7 -14 -17z m657 -59
c-7 -65 0 -64 20 3 13 47 13 47 8 8 -5 -43 -27 -79 -65 -104 l-24 -16 23 32
c15 20 26 51 29 82 2 28 7 51 10 51 2 0 2 -25 -1 -56z m-3742 16 c-3 -5 -12
-10 -18 -10 -7 0 -6 4 3 10 19 12 23 12 15 0z m2970 -38 c18 -20 23 -31 13
-27 -16 6 -48 47 -48 61 0 4 1 5 3 3 1 -2 15 -19 32 -37z m-3023 21 c-14 -3
-20 -9 -15 -16 4 -7 -1 -6 -10 2 -24 19 -22 21 16 20 23 -1 26 -3 9 -6z m3061
-18 c-3 -9 -8 -14 -10 -11 -3 3 -2 9 2 15 9 16 15 13 8 -4z m4591 -82 c21 -29
35 -53 33 -53 -3 0 -14 -3 -24 -6 -14 -5 -15 -4 -4 4 12 9 9 19 -20 60 -36 53
-48 53 -30 0 9 -25 9 -30 0 -21 -6 6 -13 31 -15 54 -3 48 -1 47 60 -38z
m-7629 15 c6 -5 3 -8 -7 -8 -10 0 -18 6 -18 14 0 8 -2 23 -5 33 -3 10 0 7 7
-7 7 -14 17 -28 23 -32z m145 37 c0 -11 -66 -45 -85 -45 -12 1 -4 7 19 15 21
7 43 18 49 24 12 12 17 14 17 6z m-234 -27 l19 -23 -21 18 c-17 14 -23 15 -27
5 -4 -8 -6 -7 -6 5 -1 23 12 21 35 -5z m7051 -10 c-3 -8 -6 -5 -6 6 -1 11 2
17 5 13 3 -3 4 -12 1 -19z m-3771 -83 c-1 -5 -6 9 -10 33 -4 23 -13 42 -19 42
-7 0 -5 4 3 10 12 8 16 1 22 -33 5 -23 6 -46 4 -52z m4285 72 c-10 -9 -11 -8
-5 6 3 10 9 15 12 12 3 -3 0 -11 -7 -18z m-9051 -88 c-16 -134 -13 -451 5
-599 27 -208 32 -460 9 -438 -14 15 -50 301 -64 502 -11 174 0 355 31 524 12
62 23 111 26 108 3 -2 0 -46 -7 -97z m1441 74 c-5 -10 -22 -29 -37 -43 -23
-21 -22 -18 7 17 37 46 45 53 30 26z m89 -16 c0 -12 -4 -28 -8 -34 -5 -7 -8 4
-7 26 0 22 3 37 8 34 4 -2 7 -14 7 -26z m3148 26 c-27 -2 -48 -9 -48 -15 0
-25 35 -80 59 -93 14 -8 21 -14 16 -15 -20 0 -53 30 -69 64 -28 58 -23 66 37
64 l52 -2 -47 -3z m3915 -86 l22 -18 -22 11 c-23 11 -53 58 -53 82 1 7 8 -3
16 -22 8 -19 25 -43 37 -53z m494 -14 c-2 -21 -4 -6 -4 32 0 39 2 55 4 38 2
-18 2 -50 0 -70z m-73 56 c-35 -38 -75 -59 -106 -58 -19 1 -18 2 7 8 41 10 66
25 94 55 14 14 27 26 30 26 2 0 -8 -14 -25 -31z m-3863 -13 c5 3 9 -2 9 -10 0
-8 -4 -18 -10 -21 -5 -3 -10 -2 -10 4 0 5 -2 15 -3 23 -2 7 -2 10 0 5 3 -4 9
-5 14 -1z m-3786 -26 c-3 -5 -14 -10 -23 -9 -14 0 -13 2 3 9 27 11 27 11 20 0z
m118 -30 c-39 -35 -92 -47 -145 -31 -22 7 -38 14 -36 16 2 3 20 -1 40 -7 47
-14 101 -3 135 27 16 13 30 24 33 24 3 0 -9 -13 -27 -29z m3306 -15 c0 -5 -4
-3 -9 5 -5 8 -9 22 -9 30 0 16 17 -16 18 -35z m3967 30 c-11 -8 -27 -15 -35
-15 -9 1 -2 7 14 15 39 18 44 18 21 0z m-109 -11 c-3 -3 -12 -4 -19 -1 -8 3
-5 6 6 6 11 1 17 -2 13 -5z m46 -11 c-7 -2 -19 -2 -25 0 -7 3 -2 5 12 5 14 0
19 -2 13 -5z m-3930 -10 c-7 -2 -21 -2 -30 0 -10 3 -4 5 12 5 17 0 24 -2 18
-5z m-3496 -45 c-3 -7 -5 -2 -5 12 0 14 2 19 5 13 2 -7 2 -19 0 -25z m7810 0
c-3 -7 -5 -2 -5 12 0 14 2 19 5 13 2 -7 2 -19 0 -25z m-7881 -102 c-8 -20 -11
-36 -7 -36 20 0 53 38 66 75 8 23 14 31 15 20 0 -43 -64 -116 -90 -100 -5 3
-3 20 6 40 8 19 15 49 16 67 l1 33 4 -31 c2 -18 -3 -48 -11 -68z m7961 62 c-3
-7 -5 -2 -5 12 0 14 2 19 5 13 2 -7 2 -19 0 -25z m-4360 0 c-3 -8 -6 -5 -6 6
-1 11 2 17 5 13 3 -3 4 -12 1 -19z m4259 -16 c-18 -35 -62 -72 -85 -72 -9 0 0
8 19 18 20 9 44 33 55 54 11 20 21 35 23 33 2 -2 -4 -17 -12 -33z m-3942 -7
c-4 -8 -10 -15 -16 -15 -5 0 -6 -6 -2 -12 4 -7 4 -10 -1 -6 -4 4 -17 2 -29 -3
-11 -6 -5 3 14 19 41 36 41 36 34 17z m-327 -17 c-3 -8 -6 -5 -6 6 -1 11 2 17
5 13 3 -3 4 -12 1 -19z m25 -73 c9 -20 9 -20 -6 -1 -9 11 -16 27 -15 35 0 14
1 14 6 1 3 -8 10 -24 15 -35z m-4661 8 c-6 -11 -11 -13 -11 -5 0 7 -6 10 -12
7 -7 -4 -4 1 6 9 24 19 32 14 17 -11z m484 -87 c-16 -52 -32 -93 -34 -91 -5 6
51 185 58 185 4 0 -7 -42 -24 -94z m56 57 c13 -16 12 -17 -3 -4 -17 13 -22 21
-14 21 2 0 10 -8 17 -17z m373 -4 c-7 -11 -34 -12 -34 -1 0 14 11 21 26 15 8
-3 11 -9 8 -14z m3996 17 c0 -2 -8 -10 -17 -17 -16 -13 -17 -12 -4 4 13 16 21
21 21 13z m-4934 -63 c-17 -53 -61 -268 -72 -353 -12 -95 -20 -86 -33 37 -19
182 -26 353 -14 353 6 0 23 -17 39 -37 15 -20 22 -33 15 -28 -9 5 -12 3 -9 -6
3 -8 10 -14 16 -14 5 0 14 -4 19 -9 5 -5 2 -6 -6 -1 -9 5 -12 4 -10 -4 10 -28
23 -12 42 52 11 37 22 65 25 63 2 -3 -3 -26 -12 -53z m4739 27 c22 -11 34 -20
27 -20 -15 0 -72 28 -72 35 0 7 3 7 45 -15z m141 -5 c-11 -8 -27 -15 -35 -15
-9 1 -2 7 14 15 39 18 44 18 21 0z m-4281 -15 c10 -11 16 -20 13 -20 -3 0 -13
9 -23 20 -10 11 -16 20 -13 20 3 0 13 -9 23 -20z m8355 -40 l-8 -35 -1 45 c-1
27 3 40 8 35 6 -6 6 -25 1 -45z m-4143 34 c-3 -3 -12 -4 -19 -1 -8 3 -5 6 6 6
11 1 17 -2 13 -5z m-4104 -54 c9 0 17 -8 17 -17 0 -10 3 -28 6 -40 4 -14 2
-23 -5 -23 -7 0 -11 6 -10 13 5 39 -3 54 -35 65 -19 7 -40 20 -47 28 -9 11 -2
10 21 -5 19 -11 43 -21 53 -21z m-204 -108 c8 -3 11 0 8 5 -4 6 7 7 26 4 32
-5 32 -6 5 -9 -35 -4 -36 -20 -2 -28 41 -10 110 2 142 25 45 32 52 27 52 -33
l0 -53 -37 -6 c-48 -8 -56 0 -9 8 35 7 36 9 36 51 0 24 -3 44 -6 44 -3 0 -20
-10 -37 -22 -27 -19 -47 -23 -124 -25 -106 -3 -120 5 -102 56 11 32 12 32 23
10 6 -12 17 -24 25 -27z m196 38 c-3 -5 -16 -10 -28 -9 -20 1 -20 2 3 9 14 4
26 8 28 9 2 1 0 -3 -3 -9z m-58 -16 c-3 -3 -12 -4 -19 -1 -8 3 -5 6 6 6 11 1
17 -2 13 -5z m308 -13 c22 -10 47 -26 55 -37 14 -18 14 -18 -6 -2 -35 30 -92
48 -154 48 -66 0 -67 -2 -54 -68 4 -21 14 -32 30 -36 52 -13 124 -98 124 -146
0 -11 3 -20 8 -20 19 1 54 40 67 75 8 22 14 32 15 22 0 -28 -26 -72 -54 -91
-35 -22 -46 -20 -46 9 0 55 -64 130 -120 142 -23 4 -29 12 -34 42 -13 81 -14
81 62 81 43 0 81 -7 107 -19z m-348 3 c-3 -3 -12 -4 -19 -1 -8 3 -5 6 6 6 11
1 17 -2 13 -5z m8476 -41 c-7 -2 -19 -2 -25 0 -7 3 -2 5 12 5 14 0 19 -2 13
-5z m22 -38 c-8 -22 -14 -32 -15 -23 0 17 21 70 26 65 2 -1 -3 -21 -11 -42z
m-8647 3 c-1 -13 7 -47 17 -77 l18 -55 -29 -24 c-23 -19 -24 -21 -6 -12 13 6
25 10 26 8 2 -2 13 -37 25 -78 25 -81 63 -160 92 -185 16 -15 15 -19 -27 -57
-58 -54 -63 -72 -27 -111 l28 -32 -32 29 c-34 30 -40 26 -24 -17 6 -15 20 -26
38 -30 15 -3 37 -9 47 -13 13 -5 17 -4 12 4 -5 8 1 9 21 2 15 -5 37 -11 48
-14 11 -3 1 -3 -23 0 -27 3 -41 1 -37 -5 3 -6 -10 -4 -29 4 -20 8 -44 15 -54
15 -22 0 -59 85 -67 155 -3 22 -7 54 -10 70 -4 24 -3 26 4 10 5 -11 10 -29 10
-39 1 -11 9 -28 19 -39 9 -11 11 -17 5 -13 -20 11 -15 -10 5 -25 9 -7 14 -10
11 -6 -4 5 13 27 38 50 l45 43 -36 53 c-20 29 -48 91 -62 137 -24 78 -28 83
-46 73 -21 -12 -22 -32 -3 -179 2 -19 -2 -8 -10 25 -8 33 -14 81 -15 108 0 26
-4 47 -10 47 -6 0 -10 -36 -10 -87 0 -54 -4 -83 -9 -77 -6 5 -7 53 -4 111 5
80 9 100 19 96 10 -4 14 5 14 32 0 35 19 125 26 125 2 0 3 -10 2 -22z m579
-40 c-3 -7 -5 -2 -5 12 0 14 2 19 5 13 2 -7 2 -19 0 -25z m8010 16 c-15 -8
-37 -30 -47 -47 -11 -18 -20 -26 -20 -18 0 17 64 81 82 81 7 -1 0 -8 -15 -16z
m-8547 -72 c0 -8 3 -12 8 -10 4 2 35 18 69 36 34 17 66 32 70 32 7 0 -137 -80
-145 -80 -3 0 -18 39 -26 70 -5 21 -3 20 9 -5 8 -16 14 -36 15 -43z m8614 -30
c3 -5 -9 -22 -27 -38 l-32 -29 27 30 c20 22 25 34 18 45 -5 8 -9 24 -9 35 1
15 3 14 9 -7 4 -14 10 -31 14 -36z m-137 -44 c-2 -13 -4 -3 -4 22 0 25 2 35 4
23 2 -13 2 -33 0 -45z m472 14 c-1 -14 -2 -14 -6 1 -4 17 -8 16 -34 -9 l-28
-27 33 -46 c36 -50 55 -82 39 -66 -5 6 -26 33 -47 62 l-37 52 33 30 c34 31 49
31 47 3z m8 -54 c-3 -7 -5 -2 -5 12 0 14 2 19 5 13 2 -7 2 -19 0 -25z m-453
-23 l17 -30 -20 24 c-12 13 -21 28 -21 34 0 12 0 11 24 -28z m-8091 -1 c-7 -3
-9 -12 -6 -20 8 -21 -5 -17 -17 6 -9 17 -8 20 12 19 13 0 18 -3 11 -5z m8575
-119 c4 -16 5 -46 2 -65 -6 -33 -7 -31 -12 20 -3 30 -8 82 -11 115 l-5 60 9
-50 c5 -27 13 -63 17 -80z m-213 43 c33 -51 70 -72 138 -79 l62 -6 -55 -1
c-63 -2 -102 17 -145 70 l-27 34 -52 -18 c-28 -9 -64 -17 -81 -17 -19 0 -7 6
32 14 34 8 70 18 80 24 25 14 26 14 48 -21z m-8386 -30 c0 -13 -3 -18 -5 -11
-3 7 -12 9 -20 6 -16 -6 -19 -53 -3 -53 5 0 7 -5 3 -11 -4 -8 -9 -7 -15 2 -15
25 -9 56 14 72 28 20 27 21 26 -5z m-487 -119 l-10 -44 0 65 c-1 51 2 60 10
44 6 -14 6 -36 0 -65z m8652 2 c-34 -15 -45 -28 -59 -65 -11 -29 -15 -58 -11
-83 4 -27 3 -32 -4 -18 -31 68 33 186 100 185 8 0 -4 -9 -26 -19z m379 2 c-7
-2 -19 -2 -25 0 -7 3 -2 5 12 5 14 0 19 -2 13 -5z m-46 -9 c-3 -3 -12 -4 -19
-1 -8 3 -5 6 6 6 11 1 17 -2 13 -5z m113 -3 c0 -4 -11 -6 -25 -3 -14 2 -25 6
-25 8 0 2 11 4 25 4 14 0 25 -4 25 -9z m-9085 -79 c-4 -31 -10 -51 -12 -44 -3
7 -2 39 2 70 4 31 10 51 12 44 3 -7 2 -39 -2 -70z m467 50 c3 -9 1 -26 -3 -37
-6 -15 -8 -11 -8 18 -1 40 4 48 11 19z m8414 -22 c-37 -41 -43 -57 -49 -125
-3 -36 -4 -34 -5 11 -2 41 3 59 24 90 23 34 52 63 63 64 2 0 -13 -18 -33 -40z
m-8857 -111 c1 -20 -5 -42 -13 -48 -11 -9 -15 -5 -21 25 -4 22 -2 41 4 47 6 6
11 20 12 32 0 20 0 20 9 0 5 -11 9 -36 9 -56z m448 39 c-3 -7 -5 -2 -5 12 0
14 2 19 5 13 2 -7 2 -19 0 -25z m8610 -65 c-3 -10 -5 -2 -5 17 0 19 2 27 5 18
2 -10 2 -26 0 -35z m-20 29 c-3 -4 -42 -25 -86 -47 -45 -21 -81 -43 -81 -47 0
-5 15 -17 33 -28 17 -11 27 -20 20 -20 -6 0 -26 12 -43 27 l-32 27 93 47 c103
53 102 52 96 41z m-8667 -7 c0 -11 -63 -36 -83 -32 -20 4 -20 4 3 6 14 1 36 8
50 16 28 16 30 17 30 10z m8250 -69 c19 -8 29 -15 22 -16 -24 0 -71 30 -82 53
l-11 22 18 -22 c10 -12 34 -29 53 -37z m456 -43 c-12 -143 -18 -185 -27 -176
-7 7 21 253 30 253 2 0 0 -35 -3 -77z m-8835 25 c15 -28 5 -21 -21 15 -15 20
-17 27 -6 18 9 -8 22 -23 27 -33z m8785 -84 c-27 -84 -39 -104 -52 -83 -4 7
-3 9 4 5 12 -7 61 134 63 182 2 25 2 25 6 3 3 -13 -7 -61 -21 -107z m-206 106
c0 -5 -8 -10 -17 -10 -15 0 -16 2 -3 10 19 12 20 12 20 0z m-43 -16 c-3 -3
-12 -4 -19 -1 -8 3 -5 6 6 6 11 1 17 -2 13 -5z m94 -29 c22 -19 46 -35 54 -35
17 0 20 -17 4 -22 -7 -2 0 -18 17 -38 l28 -35 -37 35 c-44 40 -58 37 -91 -25
-11 -22 -22 -42 -23 -44 -2 -2 -5 -2 -8 1 -3 3 10 28 29 57 l35 51 -51 26
c-35 18 -61 24 -87 21 -20 -2 -28 -2 -18 0 9 2 17 8 17 13 0 5 -8 11 -17 13
-10 2 -2 2 17 0 20 -2 47 0 60 6 14 5 27 10 29 10 2 1 21 -15 42 -34z m-8601
-75 c0 -25 -4 -50 -8 -57 -4 -6 -7 20 -7 57 0 37 3 63 7 57 4 -7 8 -32 8 -57z
m236 -15 c7 -39 -2 -101 -16 -110 -5 -3 -4 8 2 25 14 42 4 106 -22 144 l-21
31 25 -28 c14 -15 28 -43 32 -62z m8294 65 c11 -8 7 -9 -15 -4 -37 8 -45 14
-19 14 10 0 26 -5 34 -10z m-172 -39 c-13 -15 -25 -27 -27 -25 -4 4 39 54 47
54 2 0 -7 -13 -20 -29z m-31 -63 c-3 -8 -6 -5 -6 6 -1 11 2 17 5 13 3 -3 4
-12 1 -19z m191 -25 c-10 -2 -28 -2 -40 0 -13 2 -5 4 17 4 22 1 32 -1 23 -4z
m-8545 -23 c-3 -12 -8 -19 -11 -16 -5 6 5 36 12 36 2 0 2 -9 -1 -20z m8410
-27 c-32 -32 -40 -36 -50 -24 -7 8 -13 24 -12 35 1 20 2 18 15 -22 3 -10 14
-5 39 17 49 43 54 39 8 -6z m397 -16 c0 -18 -2 -19 -10 -7 -13 20 -13 43 0 35
6 -3 10 -16 10 -28z m-8787 -26 c18 -5 41 -12 52 -14 18 -4 17 -5 -3 -6 -37
-2 -92 26 -91 46 1 16 2 16 6 1 2 -9 19 -21 36 -27z m217 24 c0 -11 -66 -45
-85 -45 -12 1 -4 7 19 15 21 7 43 18 49 24 12 12 17 14 17 6z m-113 -51 c-3
-3 -12 -4 -19 -1 -8 3 -5 6 6 6 11 1 17 -2 13 -5z m-108 -114 c12 -22 21 -49
21 -59 0 -10 9 -31 21 -47 l21 -29 -26 28 c-14 15 -26 38 -26 50 0 13 -6 31
-13 42 -15 22 -28 55 -23 55 2 0 13 -18 25 -40z m51 13 c33 -19 65 -73 57 -94
-3 -9 -6 -6 -6 7 -1 30 -38 74 -75 90 -17 7 -25 13 -18 14 8 0 27 -8 42 -17z
m8133 -53 c-3 -12 -8 -19 -11 -16 -5 6 5 36 12 36 2 0 2 -9 -1 -20z m18 -154
c17 -24 18 -27 4 -16 -25 20 -45 72 -44 112 1 27 3 24 10 -16 4 -27 18 -63 30
-80z m112 -5 c13 -14 23 -31 20 -38 -2 -6 1 -31 7 -55 7 -24 11 -44 11 -46 -1
-2 15 -17 36 -34 21 -16 38 -34 37 -39 -1 -5 -2 -14 -2 -20 -2 -11 -40 30 -45
47 -1 4 -22 28 -47 53 -25 25 -33 35 -17 21 l29 -25 -7 25 c-5 14 -9 40 -10
58 -1 18 -11 43 -22 55 -27 29 -43 61 -43 84 1 10 7 1 15 -21 7 -21 24 -50 38
-65z m397 69 c0 -5 -5 -10 -11 -10 -5 0 -7 5 -4 10 3 6 8 10 11 10 2 0 4 -4 4
-10z m-8603 -22 c-3 -8 -6 -5 -6 6 -1 11 2 17 5 13 3 -3 4 -12 1 -19z m-15
-37 c-5 -13 -6 -13 -10 0 -3 7 -9 23 -15 34 l-10 20 20 -20 c11 -11 18 -27 15
-34z m8021 -38 c-7 -2 -21 -2 -30 0 -10 3 -4 5 12 5 17 0 24 -2 18 -5z m44 -9
c-3 -3 -12 -4 -19 -1 -8 3 -5 6 6 6 11 1 17 -2 13 -5z m-127 -8 c0 -2 -12 -11
-27 -20 l-28 -17 24 20 c23 21 31 25 31 17z m-7814 -47 c3 -6 -5 -3 -20 6 -14
10 -26 19 -26 22 0 7 39 -17 46 -28z m7741 -86 c-3 -10 -5 -4 -5 12 0 17 2 24
5 18 2 -7 2 -21 0 -30z m108 12 c-22 -8 -52 -27 -67 -44 -27 -30 -38 -30 -38
-2 0 12 2 13 9 3 6 -10 11 -9 22 4 21 25 71 54 94 54 11 -1 3 -7 -20 -15z
m102 9 c-3 -3 -12 -4 -19 -1 -8 3 -5 6 6 6 11 1 17 -2 13 -5z m-8133 -102 c27
-65 27 -82 -2 -82 -12 -1 -10 -5 8 -15 19 -11 21 -14 8 -15 -15 0 -10 -16 29
-95 38 -76 50 -92 61 -83 7 6 11 20 9 30 -3 10 -1 16 4 12 14 -8 11 -23 -9
-49 l-18 -23 -56 112 c-31 61 -59 122 -62 136 -3 14 -3 19 0 13 5 -12 44 -19
44 -8 0 2 -12 34 -26 69 -20 48 -31 63 -43 59 -14 -4 -14 -3 -1 6 19 13 23 9
54 -67z m-53 12 c11 -26 18 -49 16 -51 -2 -2 -14 19 -25 47 -11 27 -19 50 -16
50 3 0 14 -21 25 -46z m8595 -19 c-8 -19 -20 -43 -26 -52 -13 -20 -13 -21 6
35 3 10 -5 5 -21 -12 -26 -28 -26 -30 -9 -43 10 -7 13 -13 7 -13 -6 0 -16 6
-23 14 -9 12 -4 23 31 60 23 25 43 46 45 46 3 0 -2 -16 -10 -35z m-664 -91
c-27 -18 -28 -31 -4 -37 10 -3 6 -5 -11 -6 -20 -1 -26 3 -21 12 14 24 37 47
48 47 6 0 0 -7 -12 -16z m-7798 -79 c15 -33 23 -55 17 -50 -5 6 -22 37 -36 70
-15 33 -22 56 -17 50 5 -5 21 -37 36 -70z m223 43 c-3 -8 -6 -5 -6 6 -1 11 2
17 5 13 3 -3 4 -12 1 -19z m8173 -18 c-7 -12 -16 -18 -23 -13 -7 4 -5 -1 3
-11 12 -16 11 -20 -10 -37 -14 -10 -21 -19 -17 -19 4 0 -13 -40 -39 -89 -32
-61 -51 -88 -60 -84 -27 10 -15 71 27 146 48 85 59 97 87 100 12 0 24 7 26 14
3 7 8 13 11 13 3 0 1 -9 -5 -20z m-8217 -20 c9 -11 13 -20 7 -20 -5 0 -14 9
-20 20 -6 11 -9 20 -8 20 2 0 11 -9 21 -20z m-879 -107 c6 -22 5 -25 -5 -16
-7 7 -13 23 -14 35 -2 13 -5 39 -9 58 -6 31 -5 31 8 -7 7 -23 17 -54 20 -70z
m933 101 c-3 -3 -12 -4 -19 -1 -8 3 -5 6 6 6 11 1 17 -2 13 -5z m-995 -27
c-12 -13 -19 -27 -15 -32 5 -4 2 -5 -5 -1 -11 6 -8 13 9 32 12 13 25 24 27 24
3 0 -4 -10 -16 -23z m8454 -29 c-9 -12 -16 -19 -16 -15 0 11 24 47 28 42 2 -2
-3 -14 -12 -27z m-7436 2 c-11 -11 -20 -25 -20 -32 0 -6 -2 -9 -5 -6 -10 9 17
58 32 58 9 0 6 -7 -7 -20z m75 -20 c10 -11 16 -20 13 -20 -3 0 -13 9 -23 20
-10 11 -16 20 -13 20 3 0 13 -9 23 -20z m7342 -42 c-3 -7 -5 -2 -5 12 0 14 2
19 5 13 2 -7 2 -19 0 -25z m72 2 c11 -24 11 -24 -3 -6 -9 11 -16 24 -16 30 0
12 5 7 19 -24z m-7461 -4 c15 -8 36 -25 47 -37 l20 -24 -25 22 c-14 12 -41 29
-60 37 -19 8 -29 15 -22 16 7 0 25 -6 40 -14z m79 -38 c-3 -7 -5 -2 -5 12 0
14 2 19 5 13 2 -7 2 -19 0 -25z m7362 28 c-2 -2 -17 -6 -34 -10 -22 -5 -26 -4
-15 4 14 9 59 15 49 6z m-7361 -81 c-3 -3 -9 2 -12 12 -6 14 -5 15 5 6 7 -7
10 -15 7 -18z m7292 16 c0 -23 59 -76 110 -100 l55 -26 -34 -35 c-19 -20 -29
-26 -23 -14 6 11 18 26 27 34 13 11 9 16 -33 35 -26 12 -64 41 -83 64 l-36 41
-13 -25 c-7 -14 -15 -23 -17 -21 -7 6 28 56 38 56 5 0 9 -4 9 -9z m567 -19
c-3 -23 -46 -82 -47 -64 0 6 9 21 20 32 11 11 20 22 20 25 0 3 0 10 0 15 0 6
2 10 5 10 3 0 4 -8 2 -18z m-7721 -48 c19 -9 40 -26 46 -38 8 -17 4 -15 -20 7
-21 21 -46 31 -84 37 -47 7 -49 8 -15 9 22 0 54 -6 73 -15z m7101 -56 c-2 -13
-4 -3 -4 22 0 25 2 35 4 23 2 -13 2 -33 0 -45z m573 9 c-8 -7 -14 -25 -14 -42
l2 -30 -5 28 c-4 27 -5 28 -19 10 -14 -17 -14 -17 -4 4 5 12 18 27 28 32 23
14 30 13 12 -2z m34 -12 c-4 -8 -8 -15 -10 -15 -2 0 -4 7 -4 15 0 8 4 15 10
15 5 0 7 -7 4 -15z m-521 -105 c23 -11 36 -20 29 -20 -36 0 -112 63 -112 94 0
6 9 -4 20 -22 12 -19 38 -41 63 -52z m-7116 18 c-2 -13 -4 -5 -4 17 -1 22 1
32 4 23 2 -10 2 -28 0 -40z m7568 33 c-9 -8 -36 -10 -30 -2 2 4 11 8 20 8 8 0
13 -3 10 -6z m29 -23 c-4 -7 -14 -21 -22 -31 -14 -16 -16 -16 -34 -1 -24 22
-23 32 5 37 45 9 58 7 51 -5z m-323 -82 c-7 -8 -20 -13 -29 -11 -9 2 -26 4
-37 6 -11 1 0 5 25 9 25 4 47 8 49 8 2 1 -2 -4 -8 -12z m-131 -33 c0 -5 -5
-15 -10 -23 -7 -12 -9 -10 -7 8 1 19 17 33 17 15z m47 -22 c10 -28 8 -32 -56
-93 -36 -34 -53 -49 -38 -32 15 17 24 34 20 39 -5 4 -3 5 3 2 6 -3 25 8 42 26
29 30 31 35 17 53 -16 21 -19 34 -7 34 4 0 13 -13 19 -29z m-97 2 c-14 -9 -30
-24 -37 -33 -7 -8 -13 -11 -13 -7 0 11 51 57 64 57 6 0 -1 -8 -14 -17z m10
-71 c0 -5 -7 -17 -15 -28 -14 -18 -14 -17 -4 9 12 27 19 34 19 19z m-73 -64
c-2 -13 -4 -5 -4 17 -1 22 1 32 4 23 2 -10 2 -28 0 -40z m357 23 c14 -26 14
-30 -2 -42 -15 -12 -15 -12 -5 1 8 10 9 21 3 30 -8 12 -10 11 -10 -5 -1 -18
-2 -18 -11 3 -8 21 -5 42 6 42 3 0 11 -13 19 -29z m-537 -7 c-3 -3 -12 -4 -19
-1 -8 3 -5 6 6 6 11 1 17 -2 13 -5z m78 -75 c-4 -5 -12 -9 -18 -9 -9 0 -8 3 1
8 10 7 8 15 -9 38 l-21 29 26 -28 c15 -16 24 -33 21 -38z m63 -36 c-12 -15
-22 -18 -14 -4 4 5 0 11 -6 14 -7 3 -3 4 9 4 17 -1 19 -4 11 -14z m-147 -22
c-18 -25 -68 -47 -80 -35 -2 2 10 7 27 10 17 4 38 17 47 30 8 13 18 24 21 24
3 0 -4 -13 -15 -29z m-268 -48 c-13 -2 -35 -2 -50 0 -16 2 -5 4 22 4 28 0 40
-2 28 -4z m177 5 c0 -2 -17 -19 -37 -38 -21 -19 -31 -26 -23 -15 18 25 60 62
60 53z m-261 -11 c-2 -2 -17 -11 -34 -21 l-30 -17 24 20 c13 12 28 21 34 21 6
0 8 -1 6 -3z m136 -7 c3 -6 -1 -7 -9 -4 -18 7 -21 14 -7 14 6 0 13 -4 16 -10z
m-202 -55 c-3 -9 -8 -14 -10 -11 -3 3 -2 9 2 15 9 16 15 13 8 -4z m732 2 c10
-8 15 -19 12 -24 -6 -9 -58 -24 -80 -22 -5 0 -18 -12 -29 -26 -11 -14 -23 -23
-26 -20 -6 5 87 105 98 105 3 0 14 -6 25 -13z m-748 -59 c-3 -7 -5 -2 -5 12 0
14 2 19 5 13 2 -7 2 -19 0 -25z m258 -8 c-4 -17 -9 -30 -11 -27 -2 2 -1 18 2
36 4 17 9 30 11 27 3 -2 2 -19 -2 -36z m-197 13 c-10 -2 -26 -2 -35 0 -10 3
-2 5 17 5 19 0 27 -2 18 -5z m108 -55 l29 -33 -32 29 c-31 28 -38 36 -30 36 2
0 16 -15 33 -32z m-194 -94 c-18 -11 -42 -33 -52 -50 -11 -16 -20 -24 -20 -18
0 14 48 66 74 81 17 9 17 12 2 41 -20 39 -39 33 -60 -16 -8 -20 -15 -31 -15
-24 -1 20 19 55 42 73 19 16 21 15 41 -25 l21 -41 -33 -21z m287 93 c-2 -2
-20 -14 -39 -26 l-35 -23 30 26 c17 14 34 26 39 26 5 0 7 -1 5 -3z m-362 -129
c-3 -7 -5 -2 -5 12 0 14 2 19 5 13 2 -7 2 -19 0 -25z m-90 -84 c-3 -3 -12 -4
-19 -1 -8 3 -5 6 6 6 11 1 17 -2 13 -5z m553 2 c0 -6 -96 -76 -105 -76 -4 0
15 18 42 39 44 37 63 47 63 37z m-603 -17 c-9 -6 -15 -14 -13 -18 3 -5 -7 -14
-22 -20 l-27 -13 29 31 c17 17 35 31 40 31 6 0 3 -5 -7 -11z m-132 -185 c12
-5 -10 -25 -87 -75 -88 -58 -103 -65 -106 -49 -2 11 2 27 7 37 9 15 10 13 5
-11 -6 -27 -6 -28 17 -15 13 7 55 33 93 58 l69 46 -49 6 -49 6 42 1 c23 1 49
-1 58 -4z m-106 -6 c-2 -2 -19 -16 -37 -32 -17 -17 -32 -26 -32 -22 0 10 51
56 63 56 6 0 8 -1 6 -2z m-161 -183 c-19 -14 -98 -55 -98 -51 0 3 15 13 32 22
30 16 31 18 13 25 -15 5 -10 7 18 7 20 -1 36 -2 35 -3z m-105 -25 c-33 -20
-46 -47 -18 -36 26 10 16 -3 -16 -19 l-30 -16 15 30 c16 30 52 61 71 61 5 0
-5 -9 -22 -20z m-5483 -530 c12 -16 19 -30 16 -30 -2 0 -14 14 -26 30 -12 17
-19 30 -16 30 2 0 14 -13 26 -30z m440 -179 c3 -3 19 -13 35 -23 17 -9 36 -27
42 -40 7 -12 13 -19 13 -15 0 15 58 -37 100 -92 23 -29 38 -52 32 -50 -11 4
-125 109 -270 248 -79 76 -81 79 -22 31 36 -29 67 -56 70 -59z m1880 -375 c0
-8 -51 -13 -56 -5 -3 5 9 9 25 9 17 0 31 -2 31 -4z m76 -40 c19 -19 34 -40 34
-47 0 -8 -9 1 -20 19 -11 18 -35 39 -53 47 -20 9 -25 14 -13 15 10 0 33 -15
52 -34z m-55 -57 l88 -80 4 38 4 38 1 -42 c1 -24 -1 -43 -4 -43 -3 0 -48 38
-100 85 -52 47 -91 85 -88 85 4 0 46 -36 95 -81z m200 -226 c13 -16 12 -17 -3
-4 -10 7 -18 15 -18 17 0 8 8 3 21 -13z m-1333 -247 c15 5 15 4 2 -5 -23 -16
-30 -13 -29 12 1 16 3 17 6 5 3 -11 11 -15 21 -12z m1741 -47 c17 -17 31 -36
31 -42 0 -7 -8 0 -17 14 -9 14 -28 33 -42 42 -14 9 -21 17 -14 17 6 0 25 -14
42 -31z m521 -735 c-8 -8 -23 -20 -34 -25 -13 -7 -9 -1 9 15 34 29 43 33 25
10z"/>
<path d="M4211 10215 c34 -45 79 -95 79 -88 0 4 -22 31 -48 58 -26 28 -40 42
-31 30z"/>
<path d="M5657 9882 c-54 -31 -117 -72 -139 -91 -54 -46 -92 -128 -85 -184 14
-104 125 -164 220 -120 38 18 39 19 40 79 2 53 7 68 33 101 l32 39 -20 39
c-25 49 -20 123 11 166 12 16 18 29 14 29 -4 -1 -52 -26 -106 -58z m53 13 c0
-2 -18 -14 -40 -25 -22 -11 -40 -18 -40 -15 0 2 17 13 38 24 42 23 42 23 42
16z m-90 -49 c0 -2 -19 -16 -42 -31 -24 -16 -58 -44 -77 -64 -27 -30 -30 -31
-16 -8 20 31 135 119 135 103z m-145 -302 c9 -14 31 -32 48 -39 18 -8 25 -14
16 -15 -46 -1 -100 79 -98 142 1 27 3 25 9 -15 5 -27 16 -60 25 -73z m133 -61
c-10 -2 -26 -2 -35 0 -10 3 -2 5 17 5 19 0 27 -2 18 -5z"/>
<path d="M2708 7110 c79 -148 103 -190 108 -190 7 0 -107 214 -123 230 -8 8
-2 -10 15 -40z"/>
<path d="M2783 7143 c-22 -8 -15 -24 53 -143 131 -227 236 -370 509 -701 105
-126 256 -299 262 -299 3 0 -1 8 -9 18 -39 44 -186 232 -300 382 -219 289
-348 482 -459 688 -18 34 -36 62 -39 61 -3 0 -11 -3 -17 -6z"/>
<path d="M2765 9980 c-3 -5 -2 -10 4 -10 5 0 13 5 16 10 3 6 2 10 -4 10 -5 0
-13 -4 -16 -10z"/>
<path d="M1400 8772 c0 -5 10 -17 22 -28 l21 -19 -18 28 c-18 28 -25 33 -25
19z"/>
<path d="M1993 8563 c9 -2 23 -2 30 0 6 3 -1 5 -18 5 -16 0 -22 -2 -12 -5z"/>
<path d="M10604 7001 c20 -22 26 -25 26 -13 0 4 -10 13 -22 21 -23 14 -23 14
-4 -8z"/>
<path d="M10637 6685 c-9 -13 -20 -39 -23 -57 l-5 -33 15 25 c8 14 12 28 10
32 -3 5 0 8 6 8 6 0 8 5 5 10 -3 6 -2 10 3 10 6 0 12 7 16 15 8 23 -7 17 -27
-10z"/>
<path d="M10001 5846 l-23 -25 38 11 c49 15 52 17 34 28 -21 14 -24 13 -49
-14z"/>
<path d="M3610 4336 c0 -2 8 -10 18 -17 15 -13 16 -12 3 4 -13 16 -21 21 -21
13z"/>
<path d="M1140 8247 c0 -19 72 -362 77 -367 3 -3 3 15 0 40 -7 55 0 34 38
-108 15 -56 30 -101 32 -98 2 2 -1 24 -8 47 -6 24 -26 126 -44 226 -29 161
-36 187 -64 224 -17 24 -31 40 -31 36z"/>
<path d="M1221 7854 c0 -11 3 -14 6 -6 3 7 2 16 -1 19 -3 4 -6 -2 -5 -13z"/>
<path d="M1301 7150 c-1 -16 110 -252 116 -246 2 1 -19 50 -45 107 -27 57 -54
115 -60 129 -6 14 -11 18 -11 10z"/>
<path d="M1440 6850 c6 -11 13 -20 16 -20 2 0 0 9 -6 20 -6 11 -13 20 -16 20
-2 0 0 -9 6 -20z"/>
<path d="M1490 6310 c6 -11 13 -20 16 -20 2 0 0 9 -6 20 -6 11 -13 20 -16 20
-2 0 0 -9 6 -20z"/>
<path d="M3071 4464 c-15 -34 -9 -39 30 -28 l31 9 -24 23 -25 22 -12 -26z m19
-9 c0 -8 -4 -15 -10 -15 -5 0 -7 7 -4 15 4 8 8 15 10 15 2 0 4 -7 4 -15z"/>
<path d="M8290 3230 c-19 -10 -64 -49 -100 -86 -72 -76 -64 -71 63 34 90 74
98 85 37 52z"/>
<path d="M5178 2082 c19 -23 39 -45 45 -49 7 -4 -3 12 -21 35 -19 23 -39 45
-45 49 -7 4 3 -12 21 -35z"/>
</g>
</svg>